<svg xmlns="http://www.w3.org/2000/svg" fill="none" viewBox="-0.5 -0.5 200 200" height="200" width="200" id="Downloading--Streamline-Bangalore.svg"><desc>Downloading Streamline Illustration: https://streamlinehq.com</desc><g id="Downloading--Streamline-Bangalore.svg"><g id="color 2"><path id="Vector" fill="#ffffff" d="m114.23794 90.62957499999999 -11.324095 -10.34004a61.21439 61.21439 0 0 1 -4.607845 9.73508c0.34228 0.38606 0.6636650000000001 0.79003 0.964155 1.2099199999999999 -3.44071 7.2635 -7.240615 14.782715 -11.568865 22.022334999999998l3.2834999999999996 18.714955 16.88117 -2.968085 -6.368 -36.124469999999995 12.739980000000001 -2.249695Z" stroke-width="1"></path><path id="Vector_2" fill="#ffffff" d="M88.22665 66.864 71.89372499999999 98.09705l10.169895 -1.7959749999999999c1.92831 -3.535235 3.913335 -7.42867 5.955075 -11.568865l0.86963 0.132335s1.965125 -2.476555 2.5133699999999997 -7.561999999999999c0.5482450000000001 -5.04664 1.8526900000000002 -5.16007 2.30641 0.86963a24.660079999999997 24.660079999999997 0 0 0 2.665605 -3.87453S88.22665 66.849075 88.22665 66.864Z" stroke-width="1"></path></g><g id="color 1"><path id="Vector_3" fill="#2964ec" d="m100.627335 130.270375 -9.62165 1.682545 -3.3083750000000003 -18.714955c-0.11343 0.45372 -4.556105 7.0893749999999995 -4.556105 7.0893749999999995a31.77234 31.77234 0 0 1 3.85662 15.198625 19.755725 19.755725 0 0 0 13.62951 -5.25559Z" stroke-width="1"></path><path id="Vector_4" fill="#2964ec" d="M143.72675500000003 87.453535a14.14094 14.14094 0 0 0 -8.60078 0.86963l-9.50424 4.1421850000000004c5.45061 -9.996765 10.512175 -20.22437 15.283199999999999 -30.17238 -1.03679 1.702445 -5.716275 1.06067 -10.58083 -1.473595 -4.7889349999999995 -2.496455 -7.97592 -5.9003499999999995 -7.292355 -7.740105a420.521825 420.521825 0 0 1 -15.505085 31.38827l6.73018 6.14313 -12.760874999999999 2.249695 5.312305 30.094769999999997a218.71095 218.71095 0 0 0 3.3511599999999997 -4.82376c9.154 -3.32728 18.29208 -7.5470749999999995 25.949599999999997 -12.81361 8.770925 0.52934 17.4125 3.535235 25.93567 8.14706a40.94425 40.94425 0 0 0 7.602795 -16.33193 92.788725 92.788725 0 0 0 -25.920744999999997 -9.679359999999999Z" stroke-width="1"></path><path id="Vector_5" fill="#2964ec" d="M52.025565 86.603805c-0.132335 -0.359195 -0.737295 -0.6427700000000001 -1.5124 -0.5482450000000001 0.28357499999999997 0.6965 0.83182 1.8705999999999998 0.83182 1.8705999999999998 0.5482450000000001 -0.49152999999999997 0.8129149999999999 -0.96316 0.6805800000000001 -1.32335Z" stroke-width="1"></path><path id="Vector_6" fill="#2964ec" d="M39.757215 90.87534c0.124375 0.36218 0.6049599999999999 0.5482450000000001 1.342255 0.6049599999999999 -0.018904999999999998 -0.07561999999999999 -0.398 -1.0945 -0.6805800000000001 -1.909405 -0.52934 0.49152999999999997 -0.783065 0.9482349999999999 -0.661675 1.3044449999999999Z" stroke-width="1"></path><path id="Vector_7" fill="#2964ec" d="M107.54557 27.699804999999998c-6.11527 1.0706200000000001 -11.556925 6.958035000000001 -10.604709999999999 15.25534a40.46466 40.46466 0 0 1 25.954575000000002 -2.892465 13.09221 13.09221 0 0 0 -9.817665000000002 -12.148950000000001 13.085245 13.085245 0 0 0 -5.5322 -0.213925Z" stroke-width="1"></path><path id="Vector_8" fill="#2964ec" d="M133.4295 54.14591c-4.820774999999999 -2.438745 -9.379864999999999 -2.985 -10.30223 -1.228825 -0.91142 1.73727 2.098455 5.123255 6.74809 7.6615 0.20298 -0.21293 1.734285 -2.991965 3.55414 -6.432675Z" stroke-width="1"></path><path id="Vector_9" fill="#2964ec" d="M53.10315 123.6785c-2.3820300000000003 -0.52934 -1.90841 -2.6865 -0.28357499999999997 -2.098455 1.66364 0.6049599999999999 0.15123999999999999 -1.194 -1.3989699999999998 -2.098455a22.659135 22.659135 0 0 1 5.217779999999999 -3.9322399999999997l-0.15123999999999999 -0.11343c-1.228825 -0.9830599999999999 -3.346185 -0.796 -5.236685 0.07561999999999999 -3.04271 -14.53695 -5.23569 -10.945 -4.101389999999999 -8.279395 -2.703415 -5.387925 -6.0117899999999995 -5.6715 -5.1421600000000005 -1.3989699999999998a17.78065 17.78065 0 0 0 2.552175 6.295365c-4.31034 -5.917265 -4.577 -1.153205 -2.00393 2.456655a10.33805 10.33805 0 0 0 5.463545 3.573045c-1.3989699999999998 2.189 -0.49152999999999997 4.423769999999999 2.9103749999999997 6.144125 1.3611600000000001 0.6965 2.7223200000000003 1.41688 4.045669999999999 2.189 0.586055 0.33830000000000005 -0.86963 -2.6138649999999997 -1.871595 -2.812865Z" stroke-width="1"></path><path id="Vector_10" fill="#2964ec" d="M44.691419999999994 94.07028500000001a0.806945 0.806945 0 0 1 -1.477575 0.5771 0.808935 0.808935 0 1 1 1.477575 -0.5771Z" stroke-width="1"></path><path id="Vector_11" fill="#2964ec" d="M96.543855 91.688255a0.808935 0.808935 0 1 1 -1.592 0.28357499999999997 0.808935 0.808935 0 0 1 1.592 -0.28357499999999997Z" stroke-width="1"></path><path id="Vector_12" fill="#2964ec" d="m79.07663000000001 125.99884 4.0794999999999995 -5.6715c0.34029000000000004 0.586055 0.6049599999999999 1.153205 0.888535 1.73926l-4.968035 3.9322399999999997Z" stroke-width="1"></path><path id="Vector_13" fill="#2964ec" d="M60.419385 124.42873c-0.707445 0.34825 -1.4387699999999999 0.64476 -2.189 0.888535 1.342255 0.5671499999999999 3.043705 0.9830599999999999 4.120295 0.5492400000000001a5.901345 5.901345 0 0 1 -1.931295 -1.437775Z" stroke-width="1"></path></g><g id="outlines"><path id="Vector_14" stroke="#120071" stroke-linecap="round" stroke-linejoin="round" d="M100.627335 130.270375a19.75075 19.75075 0 0 1 -13.631499999999999 5.25559 31.77234 31.77234 0 0 0 -3.85662 -15.198625" stroke-width="1"></path><path id="Vector_15" stroke="#120071" stroke-linecap="round" stroke-linejoin="round" d="M123.0218 53.163844999999995a420.86908 420.86908 0 0 1 -15.476230000000001 31.3226" stroke-width="1"></path><path id="Vector_16" stroke="#120071" stroke-linecap="round" stroke-linejoin="round" d="M187.602275 103.878a25.87 25.87 0 0 0 -28.05303 -14.80162 26.29188 26.29188 0 0 0 -4.9153 1.380065" stroke-width="1"></path><path id="Vector_17" stroke="#120071" stroke-linecap="round" stroke-linejoin="round" d="M189.228105 108.645045c0.11343 0.45372 0.199 0.90744 0.28357499999999997 1.380065a25.944625 25.944625 0 0 1 -20.983555 29.96144L40.98604 162.4636a29.12763 29.12763 0 0 1 -10.11318 -57.372695c2.189 -0.379095 4.414815 -0.51342 6.63466 -0.398a24.278 24.278 0 0 1 -2.85366 -18.29805" stroke-width="1"></path><path id="Vector_18" stroke="#120071" stroke-linecap="round" stroke-linejoin="round" d="M36.80903 80.72435a21.383544999999998 21.383544999999998 0 0 0 -1.3989699999999998 3.15415" stroke-width="1"></path><path id="Vector_19" stroke="#120071" stroke-linecap="round" stroke-linejoin="round" d="M137.318955 46.45257A40.240784999999995 40.240784999999995 0 0 0 74.25685 74.05188000000001a24.193425 24.193425 0 0 0 -30.794255 -1.17211" stroke-width="1"></path><path id="Vector_20" stroke="#120071" stroke-linecap="round" stroke-linejoin="round" d="M90.229585 127.56696a7.415735000000001 7.415735000000001 0 0 1 -2.39994 1.2099199999999999" stroke-width="1"></path><path id="Vector_21" stroke="#120071" stroke-linecap="round" stroke-linejoin="round" d="M152.99020499999997 89.89228a40.322375 40.322375 0 0 0 -7.732145 -36.08666" stroke-width="1"></path><path id="Vector_22" stroke="#120071" stroke-linecap="round" stroke-linejoin="round" d="m134.524 62.576544999999996 -0.7562 1.5124" stroke-width="1"></path><path id="Vector_23" stroke="#120071" stroke-linecap="round" stroke-linejoin="round" d="M106.39236500000001 113.97526c-0.2985 0.49152999999999997 -0.623865 0.964155 -0.9263450000000001 1.417875" stroke-width="1"></path><path id="Vector_24" stroke="#120071" stroke-linecap="round" stroke-linejoin="round" d="M98.509975 76.357295c1.380065 -3.57205 1.1342999999999999 -4.6765 -0.5671499999999999 -4.819780000000001a4.8556 4.8556 0 0 0 -3.32728 1.153205" stroke-width="1"></path><path id="Vector_25" stroke="#120071" stroke-linecap="round" stroke-linejoin="round" d="m87.69731 113.237965 3.3073799999999998 18.73386 16.862265 -2.9869899999999996 -6.370984999999999 -36.124469999999995 12.760874999999999 -2.249695 -11.324095 -10.34004" stroke-width="1"></path><path id="Vector_26" stroke="#120071" stroke-linecap="round" stroke-linejoin="round" d="m96.37371 74.297645 -8.14706 -7.44857 -16.35183 31.22907 10.169895 -1.77707" stroke-width="1"></path><path id="Vector_27" stroke="#120071" stroke-linecap="round" stroke-linejoin="round" d="M54.95584 126.489375a70.645 70.645 0 0 1 6.711275 4.4775c7.51026 5.50036 16.14288 7.995819999999999 25.33071 4.556105" stroke-width="1"></path><path id="Vector_28" stroke="#120071" stroke-linecap="round" stroke-linejoin="round" d="M62.39844 125.85556a9.39081 9.39081 0 0 1 -4.15313 -0.518395c0.74625 -0.241785 1.47459 -0.5373 2.178055 -0.88356" stroke-width="1"></path><path id="Vector_29" stroke="#120071" stroke-linecap="round" stroke-linejoin="round" d="M62.39844 125.85556a5.020770000000001 5.020770000000001 0 0 1 -1.9750750000000001 -1.401955c3.362105 -1.7183650000000001 2.4974499999999997 -3.901395 -3.7809999999999997 -8.90923" stroke-width="1"></path><path id="Vector_30" stroke="#120071" stroke-linecap="round" stroke-linejoin="round" d="M60.702960000000004 127.86944c11.28529 -13.156885 19.829355 -27.9197 27.29683 -43.156135a16.036415 16.036415 0 0 1 11.266385 6.502325c-6.749085 13.78075 -11.360909999999999 23.043205 -20.20845 34.782215l4.975 -3.9222900000000003" stroke-width="1"></path><path id="Vector_31" stroke="#120071" stroke-linecap="round" stroke-linejoin="round" d="M52.025565 86.603805A174.55285 174.55285 0 0 0 68.058 118.58807999999999" stroke-width="1"></path><path id="Vector_32" stroke="#120071" stroke-linecap="round" stroke-linejoin="round" d="M51.28827 115.48765999999999a157.30651500000002 157.30651500000002 0 0 1 -11.531055 -24.61232" stroke-width="1"></path><path id="Vector_33" stroke="#120071" stroke-linecap="round" stroke-linejoin="round" d="M37.677665 79.949245c2.6865 -1.569115 4.9153 -1.77707 8.01572 -1.55021" stroke-width="1"></path><path id="Vector_34" stroke="#120071" stroke-linecap="round" stroke-linejoin="round" d="M38.22591 81.423835a10.630579999999998 10.630579999999998 0 0 1 7.996815000000001 3.119325" stroke-width="1"></path><path id="Vector_35" stroke="#120071" stroke-linecap="round" stroke-linejoin="round" d="M41.09947 91.4803c-0.037809999999999996 -0.11343 -0.995 -2.76013 -1.039775 -2.87356a2.964105 2.964105 0 0 0 -2.70242 -1.98403c-2.118355 -0.080595 -5.137185000000001 -0.379095 -5.217779999999999 -1.266635 -0.12537 -1.38106 4.40586 -1.246735 5.613790000000001 -2.2885 0.41690499999999997 -0.359195 -0.524365 -1.8377649999999999 -0.92535 -2.34422a422.7556 422.7556 0 0 0 -3.4029 -4.179c-2.2885 -2.6695849999999997 -1.037785 -3.17803 1.228825 -1.0945A2073.96805 2073.96805 0 0 0 38.208 78.7045" stroke-width="1"></path><path id="Vector_36" stroke="#120071" stroke-linecap="round" stroke-linejoin="round" d="M43.273545 78.3065a24.078005 24.078005 0 0 0 -1.73926 -5.42474c-1.479565 -3.21186 -0.23283 -3.25962 1.531305 -0.6049599999999999a43.88945 43.88945 0 0 1 1.194 1.8904999999999998 223.416305 223.416305 0 0 0 2.816845 4.66854c1.02087 1.644735 4.271535 9.09231 4.271535 9.09231" stroke-width="1"></path><path id="Vector_37" stroke="#120071" stroke-linecap="round" stroke-linejoin="round" d="m38.605999999999995 79.401 -3.6287649999999996 -6.21875c-1.78304 -3.043705 -0.5283450000000001 -3.2904649999999998 1.380065 -0.888535 1.815875 2.2885 4.0794999999999995 5.04664 4.0794999999999995 5.04664" stroke-width="1"></path><path id="Vector_38" stroke="#120071" stroke-linecap="round" stroke-linejoin="round" d="M40.8945 78.436845a57.222449999999995 57.222449999999995 0 0 0 -2.741225 -5.97c-1.62981 -3.117335 -0.398 -3.228775 1.4556850000000001 -0.775105a38.493565 38.493565 0 0 1 3.1949449999999997 4.7063500000000005" stroke-width="1"></path><path id="Vector_39" stroke="#120071" stroke-linecap="round" stroke-linejoin="round" d="M100.94872000000001 74.59913c1.435785 0.7562 1.662645 1.9472150000000001 0.45372 5.02873" stroke-width="1"></path><path id="Vector_40" stroke="#120071" stroke-linecap="round" stroke-linejoin="round" d="M99.43632000000001 72.747435c1.758165 0.964155 1.909405 1.9273150000000001 0.6965 4.9899249999999995" stroke-width="1"></path><path id="Vector_41" stroke="#120071" stroke-linecap="round" stroke-linejoin="round" d="M92.59271000000001 79.457715c3.32728 -3.74319 4.045669999999999 -5.72722 4.0794999999999995 -5.821745" stroke-width="1"></path><path id="Vector_42" stroke="#120071" stroke-linecap="round" stroke-linejoin="round" d="M93.6892 78.172175c-0.45372 -6.029699999999999 -1.760155 -5.917265 -2.30641 -0.86963 -0.550235 5.085445 -2.5133699999999997 7.561999999999999 -2.5133699999999997 7.561999999999999a16.06129 16.06129 0 0 1 9.4326 5.141165" stroke-width="1"></path><path id="Vector_43" stroke="#120071" stroke-linecap="round" stroke-linejoin="round" d="M98.306 90.00571a80.68256 80.68256 0 0 0 4.25263 -8.6565c1.0616649999999999 -2.9670900000000002 1.077585 -4.0794999999999995 -0.359195 -4.95311" stroke-width="1"></path><path id="Vector_44" stroke="#120071" stroke-linecap="round" stroke-linejoin="round" d="m70.43804 140.21341 1.1910150000000002 6.711275 59.564679999999996 -10.510185 -1.1910150000000002 -6.711275" stroke-width="1"></path><path id="Vector_45" stroke="#120071" stroke-linecap="round" stroke-linejoin="round" d="M129.870385 60.5955c0.434815 -0.47262499999999996 6.808785 -12.28626 9.154 -17.82642 1.74125 -4.120295 3.44071 -7.6485650000000005 4.233725 -7.69334 2.818835 -0.162185 0.22686 10.774855 1.606925 15.745875 1.583045 5.7262249999999995 -1.6258299999999999 6.050595 -3.913335 11.398719999999999" stroke-width="1"></path><path id="Vector_46" stroke="#120071" stroke-linecap="round" stroke-linejoin="round" d="M194.010075 106.77345c-0.132335 -0.796 -3.817815 -2.11736 -8.090345000000001 -3.44071 -4.34815 -1.32335 -12.30616 -4.536205 -16.257305 -6.21875a43.962085 43.962085 0 0 1 -3.742195 10.358945c3.515335 1.342255 6.993855 3.1949449999999997 9.016689999999999 3.21385a9.592795 9.592795 0 0 0 3.573045 -0.71839c4.8008750000000004 -1.871595 15.972735 -0.41889499999999996 15.50011 -3.1949449999999997Z" stroke-width="1"></path><path id="Vector_47" stroke="#120071" stroke-linecap="round" stroke-linejoin="round" d="m4.975 92.822555 3.7053800000000003 -1.342255" stroke-width="1"></path><path id="Vector_48" stroke="#120071" stroke-linecap="round" stroke-linejoin="round" d="m15.23942 89.09827 3.7053800000000003 -1.3611600000000001" stroke-width="1"></path><path id="Vector_49" stroke="#120071" stroke-linecap="round" stroke-linejoin="round" d="m9.417675 83.29543 1.342255 3.7053800000000003" stroke-width="1"></path><path id="Vector_50" stroke="#120071" stroke-linecap="round" stroke-linejoin="round" d="m13.159870000000002 93.578755 1.342255 3.686475" stroke-width="1"></path><path id="Vector_51" stroke="#120071" stroke-linecap="round" stroke-linejoin="round" d="m5.220765 87.133145 3.573045 1.6815499999999999" stroke-width="1"></path><path id="Vector_52" stroke="#120071" stroke-linecap="round" stroke-linejoin="round" d="m15.12599 91.763875 3.573045 1.66364" stroke-width="1"></path><path id="Vector_53" stroke="#120071" stroke-linecap="round" stroke-linejoin="round" d="m15.107085 83.541195 -1.66364 3.573045" stroke-width="1"></path><path id="Vector_54" stroke="#120071" stroke-linecap="round" stroke-linejoin="round" d="m10.49526 93.44642 -1.682545 3.573045" stroke-width="1"></path><path id="Vector_55" stroke="#120071" stroke-linecap="round" stroke-linejoin="round" d="m165.12622 71.461895 1.813885 10.132085" stroke-width="1"></path><path id="Vector_56" stroke="#120071" stroke-linecap="round" stroke-linejoin="round" d="m171.099205 75.62 -10.132085 1.81488" stroke-width="1"></path><g id="Group"><path id="Vector_57" stroke="#120071" stroke-linecap="round" stroke-linejoin="round" d="m33.02803 132.123065 0.397005 2.174075" stroke-width="1"></path><path id="Vector_58" stroke="#120071" stroke-linecap="round" stroke-linejoin="round" d="m31.74249 136.71698 -2.1929800000000004 0.397005" stroke-width="1"></path><path id="Vector_59" stroke="#120071" stroke-linecap="round" stroke-linejoin="round" d="m38.017955 135.601585 -2.17308 0.3781" stroke-width="1"></path><path id="Vector_60" stroke="#120071" stroke-linecap="round" stroke-linejoin="round" d="m34.559335 140.57260499999998 -0.397005 -2.17308" stroke-width="1"></path><path id="Vector_61" stroke="#120071" stroke-linecap="round" stroke-linejoin="round" d="M35.844875 135.97968500000002a2.0904949999999998 2.0904949999999998 0 0 1 -1.559165 -0.339295 2.07756 2.07756 0 0 1 -0.860675 -1.34325A2.0835299999999997 2.0835299999999997 0 0 1 31.740499999999997 136.713a2.09149 2.09149 0 0 1 1.559165 0.339295 2.07557 2.07557 0 0 1 0.860675 1.34325 2.0835299999999997 2.0835299999999997 0 0 1 1.6845350000000001 -2.41586Z" stroke-width="1"></path></g><path id="Vector_62" stroke="#120071" stroke-linecap="round" stroke-linejoin="round" d="M133.4295 54.14591c-4.820774999999999 -2.438745 -9.37688 -2.985 -10.30223 -1.228825 -0.9452499999999999 1.791 2.2685999999999997 5.33121 7.20181 7.90229 4.93321 2.5710800000000003 9.679359999999999 3.19395 10.623615 1.397975 -9.84254 20.52486 -20.97062 42.312374999999996 -34.139445 60.737785" stroke-width="1"></path><path id="Vector_63" stroke="#120071" stroke-linecap="round" stroke-linejoin="round" d="M56.638385 115.544375c-1.202955 -1.11639 -3.4237949999999997 -0.940275 -5.387925 -0.037809999999999996 -3.04271 -14.535955 -5.23569 -10.945 -4.101389999999999 -8.279395 -2.703415 -5.387925 -6.008805 -5.6715 -5.1421600000000005 -1.3989699999999998a17.810499999999998 17.810499999999998 0 0 0 2.552175 6.295365c-4.31034 -5.917265 -4.577 -1.1542 -2.00393 2.456655a10.345015 10.345015 0 0 0 5.463545 3.573045c-1.3989699999999998 2.189 -0.486555 4.41183 2.9103749999999997 6.144125a92.00765 92.00765 0 0 1 4.045669999999999 2.189c0.6019749999999999 0.345265 -0.84973 -2.61287 -1.833785 -2.83575 -2.379045 -0.53929 -1.94622 -2.667595 -0.32138500000000003 -2.07955 1.664635 0.597 0.15123999999999999 -1.194 -1.3989699999999998 -2.098455a22.675055 22.675055 0 0 1 5.217779999999999 -3.92826v0Z" stroke-width="1"></path><path id="Vector_64" stroke="#120071" stroke-linecap="round" stroke-linejoin="round" d="M110.15446 118.153265a114.52251 114.52251 0 0 0 25.954575000000002 -12.8355c8.770925 0.52934 17.4125 3.535235 25.93567 8.14706a40.94425 40.94425 0 0 0 7.602795 -16.33193 92.9927 92.9927 0 0 0 -25.916765 -9.679359999999999 14.14691 14.14691 0 0 0 -8.60078 0.86963l-9.50822 4.1591" stroke-width="1"></path><path id="Vector_65" stroke="#120071" stroke-linecap="round" stroke-linejoin="round" d="m104.842155 160.251715 -1.43678 6.048604999999999 4.556105 -0.850725 -1.4556850000000001 6.0496" stroke-width="1"></path><path id="Vector_66" stroke="#120071" stroke-dasharray="3.24 5.42" stroke-linecap="round" stroke-linejoin="round" d="M131.32607 68.87191c-5.174 10.094275 -15.63344 30.094769999999997 -23.496924999999997 42.85465" stroke-width="1"></path><path id="Vector_67" stroke="#120071" stroke-dasharray="3.41 5.66" stroke-linecap="round" stroke-linejoin="round" d="M165.4685 108.304755c-0.6427700000000001 -0.510435 -20.454214999999998 -10.661425 -30.35944 -8.90326 0 0 -13.32703 9.111215 -19.319915 10.056465" stroke-width="1"></path><path id="Vector_68" stroke="#120071" stroke-linecap="round" stroke-linejoin="round" d="M109.81516500000001 27.500805a13.0942 13.0942 0 0 0 -12.840475 15.64538 13.091215 13.091215 0 0 0 25.932685 -2.5501850000000004 13.08226 13.08226 0 0 0 -3.8337350000000003 -9.259469999999999 13.07828 13.07828 0 0 0 -9.258474999999999 -3.835725v0Z" stroke-width="1"></path><path id="Vector_69" stroke="#120071" stroke-linecap="round" stroke-linejoin="round" d="M50.513165 86.05556c0.775105 -0.094525 1.380065 0.18905 1.5124 0.5482450000000001 0.48158 1.3054400000000002 -3.7203049999999998 3.246685 -5.0476350000000005 3.742195 -1.778065 0.6636650000000001 -6.739135 1.93627 -7.220714999999999 0.52934 -0.12139 -0.35620999999999997 0.132335 -0.8129149999999999 0.661675 -1.3044449999999999" stroke-width="1"></path></g></g></svg>