<svg xmlns="http://www.w3.org/2000/svg" fill="none" viewBox="-0.5 -0.5 200 200" height="200" width="200" id="Bring-Solutions-To-Problems--Streamline-Bangalore.svg"><desc>Bring Solutions To Problems Streamline Illustration: https://streamlinehq.com</desc><g id="Bring-Solutions-To-Problems--Streamline-Bangalore.svg"><g id="color 2"><path id="Vector" fill="#ffffff" d="m153.40014499999998 121.77208 -33.990195 5.06654c-1.6397599999999999 -7.3431 -2.51138 -11.00271 -3.0845000000000002 -13.631499999999999 -2.3979500000000002 -10.92112 -11.887265 -14.66829 -14.515059999999998 -15.49812 -0.33034 1.98005 -11.864379999999999 8.838584999999998 -17.099075 5.70334C65.54861 128.431615 53.73 144.78244999999998 28.40526 168.75199999999998c-3.8944300000000003 3.610855 7.44857 16.01154 11.361905 12.4574 24.37153 -21.838260000000002 37.32842 -33.7902 55.71005 -56.16377l-3.553145 -11.79672 15.23743 26.179445c1.08256 1.85667 2.7093849999999997 3.3362350000000003 4.659585 4.239695 1.951195 0.9024650000000001 4.13124 1.18405 6.247605 0.8079400000000001l38.187104999999995 -6.88142c3.4228 -0.558195 0.6497350000000001 -16.45531 -2.8556500000000002 -15.822489999999998Z" stroke-width="1"></path><path id="Vector_2" fill="#ffffff" d="m68.180385 39.1035 -5.70931 -26.521725 -8.790825000000002 1.8904999999999998c-0.455909 0.1061665 -0.8723165 0.33969299999999997 -1.2006665 0.673217 -0.3284495 0.33362349999999996 -0.555409 0.753613 -0.6544114999999999 1.211114 -0.09900250000000001 0.457501 -0.066068 0.933708 0.0950225 1.373299 0.160991 0.4394915 0.443571 0.824258 0.8148055 1.1094249999999999 0.8463470000000001 0.652123 1.488719 1.5325985 1.8513965000000001 2.5375485 0.3626775 1.0050495 0.430636 2.0927835 0.195816 3.1351455 -0.23481999999999997 1.0422625 -0.7626674999999999 1.9957709999999997 -1.5212554999999999 2.74819 -0.7586875 0.7523195 -1.7164745000000001 1.2722069999999999 -2.760727 1.49847 -1.0442525 0.2261635 -2.1313895 0.14925 -3.1333545 -0.2217855 -1.001965 -0.3710355 -1.8770675 -1.020671 -2.522126 -1.872391 -0.645158 -0.85172 -1.033407 -1.8700029999999999 -1.1190765 -2.935051 -0.0856695 -1.0649485 0.13472299999999998 -2.132285 0.6354069999999999 -3.0762415 0.218701 -0.41252700000000003 0.315813 -0.878585 0.279993 -1.3441455 -0.0357205 -0.4655605 -0.20298 -0.9113205000000001 -0.4822765 -1.2855400000000001 -0.27919700000000003 -0.3742195 -0.6589885 -0.6613764999999999 -1.095097 -0.828238 -0.436009 -0.166762 -0.9105245000000001 -0.206363 -1.3682245 -0.11412649999999999l-8.20477 1.758165L39.202999999999996 45.361055c0.1354195 0.6267505 0.514216 1.1740005 1.053108 1.5214545 0.5388919999999999 0.3473545 1.1937015 0.46655549999999996 1.820452 0.33123549999999996l13.47827 -2.892465c0.126365 -1.3671300000000002 0.37213 -4.16308 1.02087 -5.02873 0.737295 -0.982065 1.266635 2.2885 1.6258299999999999 4.4426749999999995l8.12915 -1.758165c0.626054 -0.13631500000000002 1.1724085 -0.5155095 1.519166 -1.0542025000000002 0.3467575 -0.538693 0.46566 -1.193005 0.33053899999999997 -1.8193575Z" stroke-width="1"></path></g><g id="color 1"><path id="Vector_3" fill="#2964ec" d="M92.056405 65.682935 90.2465 67.74358000000001c-0.06815750000000001 -0.4735205 -0.193826 -0.9369915 -0.37412 -1.380065 0.7475434999999999 -0.1585035 1.478769 -0.3863585 2.1840249999999997 -0.6805800000000001Z" stroke-width="1"></path><path id="Vector_4" fill="#2964ec" d="M105.21329 83.66158999999999c-0.56914 1.536678 -1.03679 3.109176 -1.3989699999999998 4.707345 2.34422 0.09353 2.49546 0.150245 4.72625 0.150245l-3.32728 -4.85759Z" stroke-width="1"></path><path id="Vector_5" fill="#2964ec" d="M97.4105 122.64170999999999c-0.6427700000000001 0.8129149999999999 -1.3044449999999999 1.606925 -1.92831 2.4009349999999996l-3.553145 -11.79672 5.481455 9.395785Z" stroke-width="1"></path><path id="Vector_6" fill="#2964ec" d="M99.23931 54.132975c-6.00781 -6.88142 -9.678365 -3.7053800000000003 -11.67931 0.22686 2.11736 -4.00786 5.46255 -2.7979399999999996 6.21875 1.6258299999999999 0.07561999999999999 0.510435 0.359195 0.47262499999999996 0.41591 0.434815 0.3027785 -0.08029649999999999 0.5859555 -0.2217855 0.83182 -0.41591 1.758165 -1.228825 2.968085 1.8526900000000002 0.34029000000000004 2.741225 -0.341484 1.9103999999999999 -0.5373995 3.843884 -0.586055 5.783935 0 0 10.9052 -3.0387299999999997 4.458595 -10.396755Z" stroke-width="1"></path><path id="Vector_7" fill="#2964ec" d="M106.19635000000001 52.45043c-2.23079 2.3253150000000002 -5.72324 2.603915 -7.807765000000001 0.6049599999999999 -2.084525 -1.9989549999999998 -1.9661199999999999 -5.501355 0.26467 -7.82667 2.23079 -2.3253150000000002 5.72324 -2.603915 7.807765000000001 -0.6049599999999999 2.084525 1.9989549999999998 1.9661199999999999 5.501355 -0.26467 7.82667Z" stroke-width="1"></path><path id="Vector_8" fill="#2964ec" d="M27.86 172.35987C16.37173 181.38850000000002 9.353 185.12770999999998 9.539064999999999 186.63215c0.398 3.232755 12.269345 -2.060645 18.223425000000002 -1.569115 1.4102135 0.148255 2.8359490000000003 0.0199 4.19691 -0.3781 1.531305 -0.47262499999999996 2.6865 -1.758165 4.1591 -3.2516599999999998 -3.7809005 -1.8984599999999998 -6.7235135 -5.131215 -8.258500000000002 -9.073405Z" stroke-width="1"></path><path id="Vector_9" fill="#2964ec" d="M165.369 124.324255c-4.187955 -2.90341 -5.97 -1.8904999999999998 -9.810699999999999 -0.888535 1.797965 3.716325 2.53725 7.85652 2.136265 11.965869999999999 4.85759 -0.679585 10.604709999999999 -1.380065 14.158850000000001 -1.592 5.161065000000001 -0.2985 9.678365 -0.755205 10.038555 -1.606925 1.28753 -2.982015 -11.64747 -4.438695 -16.52297 -7.87841Z" stroke-width="1"></path><path id="Vector_10" fill="#2964ec" d="m148.313705 71.01215499999999 -4.006865 0.398c0.90744 -2.607895 2.6268000000000002 -2.798935 4.006865 -0.398Z" stroke-width="1"></path><path id="Vector_11" fill="#2964ec" d="M149.0709 82.508385c-0.888535 1.9661199999999999 -2.30641 2.04174 -3.51633 0.28357499999999997l3.51633 -0.28357499999999997Z" stroke-width="1"></path><path id="Vector_12" fill="#2964ec" d="M123.134235 34.09467c-0.08457500000000001 0.018109 -0.17213499999999998 0.019303 -0.25671 0.0033829999999999997 -0.08457500000000001 -0.01592 -0.166165 -0.0486555 -0.237805 -0.09611700000000001 -0.07263499999999999 -0.047561 -0.134325 -0.1089525 -0.182085 -0.1805925 -0.048755 -0.0717395 -0.08159000000000001 -0.1523345 -0.09850500000000001 -0.2371085l-1.606925 -7.8605c-0.034825 -0.167956 -0.00199 -0.3429765 0.09154 -0.486555 0.094525 -0.1435785 0.241785 -0.243974 0.40894499999999995 -0.2790975 0.168155 -0.035123499999999995 0.343275 -0.00199 0.48755 0.09193799999999999 0.14328 0.093928 0.243775 0.24108849999999998 0.2786 0.40904450000000003l1.606925 7.8605c0.02189 0.0832815 0.026865 0.170344 0.01393 0.25551599999999997 -0.012934999999999999 0.085172 -0.04378 0.166762 -0.090545 0.23959599999999998 -0.04577 0.0727345 -0.106465 0.1352205 -0.17810499999999999 0.1833785 -0.07164 0.0482575 -0.152235 0.0810925 -0.23681 0.0966145Z" stroke-width="1"></path><path id="Vector_13" fill="#2964ec" d="m79.84377500000001 80.90146 -2.985 7.27743c0.6805800000000001 0.056715 1.380065 0.094525 2.060645 0.132335 -0.378697 -2.507997 -0.058904000000000005 -5.071714 0.924355 -7.409765Z" stroke-width="1"></path><path id="Vector_14" fill="#2964ec" d="M6.49536 108.27391c-0.1648317 0.158205 -0.3848262 0.24676 -0.61358665 0.24676 -0.2287704 -0.000995 -0.44843655 -0.08954999999999999 -0.6127011 -0.24875 -0.1642546 -0.1592 -0.26027209999999995 -0.37611 -0.2677943 -0.6049599999999999 -0.0075321500000000005 -0.22885 0.07401805 -0.450735 0.22744704999999998 -0.62088 0.1648317 -0.158205 0.38481624999999997 -0.24676 0.61358665 -0.24676 0.2287704 0.000995 0.44843655 0.08954999999999999 0.6126911500000001 0.24875 0.16426454999999998 0.1592 0.26027209999999995 0.37611 0.26780425 0.6049599999999999 0.0075321500000000005 0.22885 -0.07401805 0.450735 -0.22744704999999998 0.62088Z" stroke-width="1"></path><path id="Vector_15" fill="#2964ec" d="M91.99969 77.895565c0.0186065 0.2018855 -0.023083999999999997 0.4046665 -0.1196985 0.5827715 -0.0966145 0.17820450000000002 -0.24387450000000002 0.3236735 -0.42317350000000004 0.418099 -0.179299 0.0944255 -0.3825775 0.1336285 -0.5841645 0.11253450000000001 -0.201587 -0.0209945 -0.39232849999999997 -0.10139050000000001 -0.5482450000000001 -0.23084000000000002 -0.1559165 -0.129549 -0.2699435 -0.302281 -0.3276535 -0.4966045 -0.057710000000000004 -0.194224 -0.056516000000000004 -0.4012835 0.0033829999999999997 -0.594811 0.059898999999999994 -0.193627 0.17591600000000002 -0.365165 0.33332500000000004 -0.4928235 0.1573095 -0.1276585 0.349046 -0.2058655 0.550832 -0.224671 0.134126 -0.012934999999999999 0.2695455 0.0006965 0.398398 0.0402975 0.1288525 0.0397005 0.2486505 0.1043755 0.3523295 0.1905425 0.10367900000000001 0.08606749999999999 0.189249 0.19193549999999998 0.251934 0.311236 0.0625855 0.11939999999999999 0.10089300000000001 0.25004350000000003 0.1127335 0.38426899999999997Z" stroke-width="1"></path><path id="Vector_16" fill="#2964ec" d="M90.33605 84.79589c0.0186065 0.20178600000000002 -0.023083999999999997 0.404567 -0.1196985 0.5827715 -0.0966145 0.17810499999999999 -0.24387450000000002 0.323574 -0.42317350000000004 0.418099 -0.179299 0.0944255 -0.3825775 0.1336285 -0.5841645 0.11253450000000001 -0.201587 -0.021094 -0.39232849999999997 -0.10139050000000001 -0.5482450000000001 -0.23084000000000002 -0.1559165 -0.129549 -0.2699435 -0.302281 -0.3276535 -0.4966045 -0.057710000000000004 -0.194224 -0.056516000000000004 -0.4012835 0.0033829999999999997 -0.5949105 0.059898999999999994 -0.19352750000000002 0.17591600000000002 -0.3650655 0.33332500000000004 -0.492724 0.1573095 -0.12775799999999998 0.349046 -0.2058655 0.550832 -0.224671 0.1342255 -0.013134 0.269645 0.0004975 0.39859700000000003 0.039999 0.1288525 0.039601000000000004 0.2486505 0.10427600000000001 0.3523295 0.19044299999999997 0.10377850000000001 0.086167 0.1893485 0.192035 0.251934 0.311435 0.0625855 0.1194995 0.1007935 0.250143 0.11253450000000001 0.38446800000000003Z" stroke-width="1"></path><path id="Vector_17" fill="#2964ec" d="M90.33605 92.508135c0.0186065 0.20178600000000002 -0.023083999999999997 0.404567 -0.1196985 0.5827715 -0.0966145 0.17810499999999999 -0.24387450000000002 0.3236735 -0.42317350000000004 0.418099 -0.179299 0.0944255 -0.3825775 0.1336285 -0.5841645 0.11253450000000001 -0.201587 -0.0209945 -0.39232849999999997 -0.10139050000000001 -0.5482450000000001 -0.23084000000000002 -0.1559165 -0.129549 -0.2699435 -0.302281 -0.3276535 -0.4966045 -0.057710000000000004 -0.194224 -0.056516000000000004 -0.4012835 0.0033829999999999997 -0.5949105 0.059898999999999994 -0.19352750000000002 0.17591600000000002 -0.3650655 0.33332500000000004 -0.492724 0.1573095 -0.12775799999999998 0.349046 -0.2058655 0.550832 -0.224671 0.134126 -0.013034500000000001 0.2695455 0.0006965 0.398398 0.0402975s0.2486505 0.1043755 0.3523295 0.19044299999999997c0.10367900000000001 0.086167 0.189249 0.19193549999999998 0.251934 0.3113355 0.0625855 0.11939999999999999 0.10089300000000001 0.25004350000000003 0.1127335 0.38426899999999997Z" stroke-width="1"></path></g><g id="outlines"><path id="Vector_18" stroke="#120071" stroke-linecap="round" stroke-linejoin="round" d="M41.4915 179.67511 66.665 189.4679l6.93714 -17.86423c0.40387049999999997 -0.984055 1.0778835 -1.8327900000000001 1.9443295 -2.4496900000000004 0.8663465 -0.6169 1.8896045 -0.9751 2.9512695 -1.0348 1.0617645 -0.059699999999999996 2.1186535 0.18308 3.048282 0.6994849999999999 0.929728 0.516405 1.6941865 1.2855400000000001 2.2051190000000003 2.217855 1.1654435 2.1402449999999997 2.9180365 3.90239 5.051416000000001 5.08047 2.133479 1.177085 4.558891 1.72135 6.99087 1.5671249999999999 2.431979 -0.15522 4.769234 -1.00097 6.736349 -2.438745 1.96811 -1.437775 3.483495 -3.4078749999999998 4.369045 -5.6774700000000005 0.8855500000000001 -2.27059 1.1044500000000002 -4.747145 0.629835 -7.137135 -0.47461499999999995 -2.38999 -1.6218499999999998 -4.5949100000000005 -3.306385 -6.355065 -1.68553 -1.76115 -3.8387100000000003 -3.00291 -6.205616 -3.581005 -2.367304 -0.5780949999999999 -4.8505255 -0.46764999999999995 -7.157234 0.3184 -1.0078354999999999 0.347255 -2.0935794999999997 0.40098500000000004 -3.1307675 0.15522 -1.0372875 -0.24576499999999998 -1.983433 -0.7810750000000001 -2.7281904999999997 -1.543245 -0.744857 -0.763165 -1.25768 -1.72135 -1.4788685 -2.76411 -0.2211885 -1.0427600000000001 -0.1415885 -2.12731 0.2295465 -3.12629l4.68844 -12.0395" stroke-width="1"></path><path id="Vector_19" stroke="#120071" stroke-linecap="round" stroke-linejoin="round" d="m26.13666 173.702125 -17.63737 -6.8655c-0.67489855 -0.26268 -1.2914602499999999 -0.655705 -1.81445215 -1.1561899999999998 -0.52300185 -0.50148 -0.9421854 -1.10047 -1.23361095 -1.76314 -0.29142555 -0.66267 -0.44939175 -1.3770799999999999 -0.46485405 -2.10144 -0.01547225 -0.7233649999999999 0.11184795 -1.443745 0.37468715 -2.118355l20.529835 -52.76485c0.2625805 -0.675605 0.6558045 -1.2935 1.1571850000000001 -1.81687 0.50148 -0.52337 1.101266 -0.94326 1.7650305 -1.234795 0.6637645 -0.291535 1.378473 -0.448745 2.103231 -0.46367 0.7248575 -0.014924999999999999 1.4454365 0.11343 2.1206435 0.377105l39.601 15.387675" stroke-width="1"></path><path id="Vector_20" stroke="#120071" stroke-linecap="round" stroke-linejoin="round" d="M166.14112 73.055885c0.11740999999999999 0.450536 0.29551499999999997 0.8830625 0.52934 1.2855400000000001" stroke-width="1"></path><path id="Vector_21" stroke="#120071" stroke-linecap="round" stroke-linejoin="round" d="M166.088385 70.429085c0.16716 -0.7962985 0.50546 -1.546827 0.99102 -2.1996465 0.48556 -0.6528195 1.107435 -1.192408 1.821845 -1.5813534999999999 2.13925 -1.165543 3.90239 -2.9181359999999996 5.079475 -5.051416000000001 1.177085 -2.1333794999999998 1.720355 -4.5585925000000005 1.56613 -6.990273 -0.15522 -2.4316805 -1.00097 -4.768637 -2.438745 -6.7356525 -1.437775 -1.9671150000000002 -3.4078749999999998 -3.4825995 -5.6774700000000005 -4.3679505 -2.27059 -0.885351 -4.746149999999999 -1.1037535 -7.136139999999999 -0.6295365 -2.38999 0.474217 -4.5949100000000005 1.6213525 -6.355065 3.3062855 -1.760155 1.6850325 -3.001915 3.837715 -3.5800099999999997 6.20482 -0.5771 2.367105 -0.46764999999999995 4.8499285 0.3184 7.1564380000000005 0.34825 1.0078354999999999 0.40198 2.0937785 0.15721 3.131265 -0.24576499999999998 1.0374865 -0.7810750000000001 1.983831 -1.54424 2.7287875 -0.763165 0.744857 -1.72135 1.2575805 -2.7651049999999997 1.4784705 -1.0427600000000001 0.22079049999999997 -2.12731 0.1405935 -3.12629 -0.231238l-19.130865 -7.42867 -4.975 12.79769" stroke-width="1"></path><path id="Vector_22" stroke="#120071" stroke-linecap="round" stroke-linejoin="round" d="m144.590415 139.698 12.8355 4.975c0.675605 0.263675 1.395985 0.39203 2.120345 0.377105 0.72436 -0.014924999999999999 1.439765 -0.17312999999999998 2.10343 -0.46466500000000005 0.6636650000000001 -0.291535 1.2626549999999999 -0.71043 1.764135 -1.2338 0.50148 -0.524365 0.894505 -1.141265 1.1571850000000001 -1.81687l2.89744 -7.45454m0.599985 -58.08611c0.43183 0.33680750000000004 0.9094300000000001 0.6104325 1.417875 0.8129149999999999l12.458395000000001 4.820774999999999c0.675605 0.26248099999999996 1.292505 0.655705 1.815875 1.1570855s0.94326 1.101067 1.234795 1.764732c0.291535 0.6636650000000001 0.448745 1.3783735 0.46367 2.103032 0.014924999999999999 0.7246585 -0.11343 1.4451379999999998 -0.377105 2.1202455000000002l-14.715055 37.852785" stroke-width="1"></path><path id="Vector_23" stroke="#120071" stroke-linecap="round" stroke-linejoin="round" d="M102.286 95.55184c1.27559 0.09751 2.4825250000000003 0.6168005 3.429765 1.475983s1.5820500000000002 2.0094024999999998 1.8039349999999998 3.269172" stroke-width="1"></path><path id="Vector_24" stroke="#120071" stroke-linecap="round" stroke-linejoin="round" d="M81.167125 72.07282500000001c2.386209 -2.4078005 5.627919 -3.7737365 9.017685 -3.799905" stroke-width="1"></path><path id="Vector_25" stroke="#120071" stroke-linecap="round" stroke-linejoin="round" d="M97.065235 48.14009 67.66995 36.722465" stroke-width="1"></path><path id="Vector_26" stroke="#120071" stroke-linecap="round" stroke-linejoin="round" d="m112.37828499999999 72.31859 6.18094 -15.803584999999998 -11.795725000000001 -4.593915" stroke-width="1"></path><path id="Vector_27" stroke="#120071" stroke-linecap="round" stroke-linejoin="round" d="M77.32941000000001 113.07578000000001 35.85383 96.95081c-1.362155 -0.533519 -2.4573515 -1.585234 -3.0455955 -2.924703 -0.588244 -1.3393695 -0.6214770000000001 -2.8574409999999997 -0.09263450000000001 -4.221387l5.52026 -14.310089999999999c0.35620999999999997 -1.0000745000000002 0.425263 -2.079948 0.199398 -3.117335 -0.225865 -1.0372875 -0.7376929999999999 -1.9906965 -1.4774755000000002 -2.75217 -0.7397825 -0.761374 -1.6780675 -1.300465 -2.70839 -1.5561800000000001 -1.0304220000000002 -0.255715 -2.1118875 -0.2178055 -3.1218125000000003 0.10945 -2.301037 0.7771945 -4.7760995 0.88157 -7.134349 0.30098749999999996 -2.358349 -0.580682 -4.501977 -1.8221435 -6.1792485 -3.5787164999999996 -1.6772715 -1.7565730000000002 -2.818437 -3.955324 -3.28947 -6.3379509999999994 -0.47113249999999995 -2.3826270000000003 -0.252531 -4.8501275 0.6301335 -7.112857 0.882565 -2.26263 2.3924775 -4.226560999999999 4.3524285 -5.6608535 1.959951 -1.434392 4.288449999999999 -2.279744 6.712071 -2.4366555 2.4237205 -0.15701099999999998 4.841869 0.38088599999999995 6.9703729999999995 1.550409 2.1286035 1.1696225 3.8792065 2.9223149999999998 5.0463415 5.052212 2.197955 4.036715 8.40178 3.98 10.149 -0.5482450000000001l0.7562 -1.9472150000000001" stroke-width="1"></path><path id="Vector_28" stroke="#120071" stroke-linecap="round" stroke-linejoin="round" d="M89.867405 66.3665c0.7529165 -0.151439 1.486928 -0.385065 2.189 -0.6965L90.2465 67.72467499999999" stroke-width="1"></path><path id="Vector_29" stroke="#120071" stroke-linecap="round" stroke-linejoin="round" d="M103.36059999999999 72.16735c-2.1133800000000003 -0.045173000000000005 -4.199298 -0.49431600000000003 -6.144125 -1.32335 -1.26365 -0.6855549999999999 -2.494465 -1.92831 -2.438745 -6.3142700000000005 0.050148 -1.9399515 0.2460635 -3.8734355 0.586055 -5.783935 2.627795 -0.86963 1.4417550000000001 -3.93622 -0.34029000000000004 -2.741225 -0.655705 0.43979 -1.131315 0.713415 -1.24773 0 -0.72038 -4.448645 -4.101389999999999 -5.63369 -6.21875 -1.6258299999999999l-0.661675 1.531305c-1.5323 4.312329999999999 -1.76115 11.198725000000001 2.972065 10.45347 0.18487099999999998 0.43501399999999996 0.310639 0.892714 0.37412 1.3611600000000001 0.024875 0.47262499999999996 -0.492525 3.0049 -1.05868 3.32728 -1.155195 0.65869 -3.1571350000000002 1.2855400000000001 -6.749085 1.115395" stroke-width="1"></path><path id="Vector_30" stroke="#120071" stroke-linecap="round" stroke-linejoin="round" d="M145.52472 82.838725c10.337055 -0.904455 12.344965 -1.5283200000000001 19.0045 -2.52332 0.6805800000000001 -0.094525 1.4755850000000001 -0.243775 2.3820300000000003 -0.434815 3.3481750000000003 -0.70844 3.5919499999999998 -1.791 -0.32138500000000003 -1.73926 -1.9870150000000002 0.026268 -3.9670650000000003 -0.23481999999999997 -5.879455 -0.775105" stroke-width="1"></path><path id="Vector_31" stroke="#120071" stroke-linecap="round" stroke-linejoin="round" d="M162.13326 77.70949999999999c0.018904999999999998 0.094525 2.496455 -0.66068 5.501355 -1.592 3.36509 -1.03878 3.57205 -2.406905 -0.510435 -1.833785 -2.0576600000000003 0.3913335 -4.168055 0.4297405 -6.23865 0.11343" stroke-width="1"></path><path id="Vector_32" stroke="#120071" stroke-linecap="round" stroke-linejoin="round" d="M160.168135 72.07282500000001s7.3898649999999995 -2.04572 7.8445800000000006 -2.189c3.4825 -1.127335 4.00786 0.13333 1.039775 1.720355 -2.7223200000000003 1.4556850000000001 -6.35208 2.985 -6.35208 2.985" stroke-width="1"></path><path id="Vector_33" fill="#120071" d="M144.210325 71.0458855c-0.20496999999999999 0.020696 -0.35422 0.203776 -0.33332500000000004 0.408746 0.020895 0.20506950000000002 0.203975 0.35441900000000004 0.40894499999999995 0.333723l-0.07561999999999999 -0.7424689999999999Zm4.80386 -0.1073605v0.373125c0.008955 0 0.016915 -0.0002985 0.025869999999999997 -0.0008954999999999999l-0.025869999999999997 -0.3722295Zm3.346185 -2.363125 0.36815 0.06169 -0.36815 -0.06169Zm1.531305 -4.99092 0.05870499999999999 -0.368548 -0.000995 0 -0.057710000000000004 0.368548Zm2.0228349999999997 6.2197450000000005 0.30447 -0.216114 0 -0.0000995 -0.30447 0.2162135Zm2.816845 -0.28357499999999997 0.14328 0.3443695 0.000995 -0.0002985 -0.144275 -0.344071Zm5.216785000000001 -2.249695 -0.156215 -0.33879750000000003 -0.000995 0.0002985 0.15721 0.338499Zm1.1342999999999999 1.531305 0.19303 0.319196 0.00796 -0.004776 -0.20099 -0.31442Zm-3.839705 2.64272c-0.14029499999999998 0.150643 -0.132335 0.3867565 0.01791 0.52735 0.150245 0.14069299999999998 0.38705500000000004 0.1326335 0.52735 -0.01791l-0.5452600000000001 -0.50944Zm-16.9946 -0.02786 0.037809999999999996 0.37123449999999997c0 -0.0000995 0 -0.0000995 0.000995 -0.0000995 0 -0.0000995 0.000995 -0.000199 0.00199 -0.0002985 0.0029850000000000002 -0.000199 0.0059700000000000005 -0.0004975 0.00995 -0.000995l0.0398 -0.00398c0.034825 -0.0034825 0.08557 -0.0086565 0.150245 -0.0152235 0.12935 -0.013034500000000001 0.31442 -0.0317405 0.536305 -0.0542275 0.44377 -0.0448745 1.035795 -0.104674 1.628815 -0.1644735 0.594015 -0.0597995 1.18803 -0.119599 1.636775 -0.1644735 0.223875 -0.022487 0.41192999999999996 -0.041093500000000005 0.544265 -0.0542275 0.066665 -0.006467499999999999 0.118405 -0.011541999999999998 0.15522 -0.0150245 0.01791 -0.0017909999999999998 0.030845 -0.0029850000000000002 0.040795000000000005 -0.0038805 0.022885 -0.0020894999999999998 0.00398 0.000199 -0.016915 0.000199v-0.74625c-0.00995 0 -0.01791 0.000398 -0.018904999999999998 0.0004975 -0.00398 0.0000995 -0.0059700000000000005 0.0002985 -0.00796 0.000398 -0.0029850000000000002 0.000199 -0.0059700000000000005 0.0004975 -0.00796 0.000597 -0.004975 0.000398 -0.00995 0.0008954999999999999 -0.01592 0.001393 -0.010945 0.000995 -0.025869999999999997 0.002388 -0.044774999999999995 0.0041789999999999996 -0.036815 0.0035819999999999997 -0.090545 0.008756 -0.156215 0.015323 -0.13333 0.013034500000000001 -0.32138500000000003 0.0317405 -0.546255 0.0542275 -0.448745 0.0448745 -1.0427600000000001 0.104674 -1.636775 0.164573 -0.59302 0.0597995 -1.1850450000000001 0.119599 -1.62981 0.1644735 -0.221885 0.022487 -0.40596 0.041193 -0.5353100000000001 0.0542275 -0.064675 0.006567 -0.116415 0.011741 -0.150245 0.0152235 -0.01791 0.0016914999999999999 -0.030845 0.0030845 -0.0398 0.00398l-0.00995 0.000995c-0.000995 0.000199 -0.00199 0.000199 -0.0029850000000000002 0.0002985 0 0 0 0.0000995 -0.000995 0.0000995l0.037809999999999996 0.37123449999999997Zm4.79192 -0.10636549999999999c0.7641600000000001 -0.052337 1.6119 -0.36665749999999997 2.2964599999999997 -0.8251535 0.67461 -0.4518295 1.26564 -1.095296 1.392005 -1.8485109999999998l-0.7363 -0.12338c-0.076615 0.45760049999999997 -0.468645 0.948434 -1.0706200000000001 1.351807 -0.59302 0.396806 -1.31738 0.6585905000000001 -1.9332850000000001 0.7007785000000001l0.051739999999999994 0.744459Zm3.688465 -2.6736645c0.088555 -0.5268525 0.16318000000000002 -1.1176835 0.241785 -1.6908035000000001 0.078605 -0.5782940000000001 0.160195 -1.1410660000000001 0.261685 -1.631203 0.10248499999999999 -0.4977985 0.219895 -0.885351 0.35620999999999997 -1.131315 0.1393 -0.25113800000000003 0.221885 -0.234422 0.24576499999999998 -0.2307405l0.11542000000000001 -0.737096c-0.496505 -0.07840599999999999 -0.82187 0.26138649999999997 -1.01291 0.6060544999999999 -0.194025 0.34984200000000004 -0.329345 0.830626 -0.43581 1.341459 -0.10746 0.518395 -0.192035 1.1043505 -0.27064 1.6823460000000001 -0.078605 0.5829705 -0.152235 1.155991 -0.237805 1.6679184999999999l0.7363 0.12338Zm1.1044500000000002 -4.6841615c0.19800500000000001 0.0315415 0.38705500000000004 0.194622 0.5552100000000001 0.635606 0.16517 0.433422 0.26566500000000004 1.0237554999999998 0.35223 1.694485 0.08457500000000001 0.6522224999999999 0.15721 1.382652 0.27263000000000004 2.0269145 0.114425 0.6378945 0.28258 1.2679285 0.597 1.7104050000000002l0.60894 -0.4323275c-0.21193499999999998 -0.29720650000000004 -0.35819999999999996 -0.7827664999999999 -0.47163 -1.409915 -0.11144 -0.62088 -0.17810499999999999 -1.3051415000000002 -0.26666 -1.9910945 -0.08656499999999999 -0.6673465 -0.19502 -1.338673 -0.395015 -1.8641325 -0.19701000000000002 -0.5178975 -0.5313300000000001 -1.0110195 -1.135295 -1.1069375000000001l-0.11740999999999999 0.7369965Zm1.77707 6.0674105c0.190045 0.26765500000000003 0.516405 0.3441705 0.769135 0.365762 0.273625 0.023283 0.586055 -0.0070645000000000005 0.88754 -0.0590035 0.603965 -0.1041765 1.244745 -0.31073850000000003 1.60792 -0.462078l-0.28656 -0.6888385c-0.317405 0.132335 -0.904455 0.32178300000000004 -1.44872 0.41551200000000005 -0.27263000000000004 0.047163 -0.5144150000000001 0.0663665 -0.6965 0.0508445 -0.20198500000000003 -0.0172135 -0.23382499999999998 -0.067859 -0.223875 -0.054426499999999996l-0.60894 0.432228Zm3.26559 -0.155618c1.115395 -0.4683465 4.862564999999999 -2.0848234999999997 5.22972 -2.2553665l-0.31442 -0.6768985c-0.35322499999999996 0.1638765 -4.0864650000000005 1.7751795 -5.20385 2.2441229999999996l0.28855 0.688142Zm5.228725 -2.2549685000000004c0.8208749999999999 -0.3785975 1.437775 -0.5652595 1.855675 -0.6195865 0.209945 -0.027263 0.34825 -0.0182085 0.428845 0.0018905 0.078605 0.019502 0.06567 0.038407000000000004 0.048755 0.006965 -0.01592 -0.029651 0.0059700000000000005 -0.027660999999999998 -0.0199 0.050148 -0.025869999999999997 0.0781075 -0.088555 0.194821 -0.21193499999999998 0.3465585 -0.24576499999999998 0.301684 -0.6805800000000001 0.680779 -1.3243449999999999 1.0920124999999998l0.40198 0.6289395c0.681575 -0.43541199999999997 1.187035 -0.8643565 1.501455 -1.249919 0.156215 -0.19193549999999998 0.27760500000000005 -0.3887465 0.341285 -0.5837665 0.064675 -0.1953185 0.082585 -0.426059 -0.03184 -0.6378945 -0.11542000000000001 -0.2136265 -0.319395 -0.3262605 -0.526355 -0.3774035 -0.203975 -0.0506455 -0.44377 -0.0514415 -0.70446 -0.017512 -0.52337 0.0679585 -1.216885 0.287953 -2.07159 0.681973l0.31243 0.6775950000000001Zm0.7850550000000001 0.873411c-1.346235 0.8154025 -2.57307 1.8120939999999999 -3.646675 2.9618165000000003l0.5452600000000001 0.50944c1.02684 -1.0997735 2.20094 -2.053083 3.487475 -2.8330635l-0.38606 -0.638193Z" stroke-width="1"></path><path id="Vector_34" stroke="#120071" stroke-linecap="round" stroke-linejoin="round" d="M159.525365 70.598235c1.24574 2.3747665 1.612895 5.1128075 1.03878 7.732145" stroke-width="1"></path><path id="Vector_35" stroke="#120071" stroke-linecap="round" stroke-linejoin="round" d="M157.72939 72.09173c-0.24576499999999998 3.06261 -1.592 5.17997 -4.46158 5.74712" stroke-width="1"></path><path id="Vector_36" stroke="#120071" stroke-linecap="round" stroke-linejoin="round" d="M103.81432 88.36893500000001c0.36218 -1.5981690000000002 0.82983 -3.170667 1.3989699999999998 -4.707345l3.30141 4.820774999999999" stroke-width="1"></path><path id="Vector_37" stroke="#120071" stroke-linecap="round" stroke-linejoin="round" d="m95.47025000000001 125.01777 -3.54618 -11.771844999999999 5.481455 9.395785" stroke-width="1"></path><path id="Vector_38" stroke="#120071" stroke-linecap="round" stroke-linejoin="round" d="M84.721265 103.397415c-19.508965 25.445135 -30.546499999999998 41.34225 -56.317 65.3516 -3.8805 3.618815 7.417725 16.000595 11.343 12.4574l6.766 -6.10532C64.87400000000001 158.5035 76.72445 147.50079 91.2415 130.1659c0 0 5.519265 -6.711275 6.1620349999999995 -7.52419l9.773885 16.76774c1.079575 1.859655 2.705405 3.342205 4.6566 4.245665000000001 1.9521899999999999 0.9024650000000001 4.134225 1.183055 6.25059 0.8019700000000001l38.208 -6.8655c3.421805 -0.570135 0.5880449999999999 -16.43143 -2.892465 -15.820500000000001l-33.990195 5.06654s-2.643715 -11.641499999999999 -3.0845000000000002 -13.64941c-0.78605 -3.65364 -2.5481949999999998 -7.02669 -5.097385 -9.759955 -2.5501850000000004 -2.733265 -5.791894999999999 -4.7241605 -9.38285 -5.7620450000000005" stroke-width="1"></path><path id="Vector_39" stroke="#120071" stroke-linecap="round" stroke-linejoin="round" d="M87.56 54.359835000000004c2.00393 -3.9322399999999997 5.6715 -7.107285 11.682295 -0.22686 6.426704999999999 7.354045 -4.46158 10.41566 -4.46158 10.41566" stroke-width="1"></path><path id="Vector_40" stroke="#120071" stroke-linecap="round" stroke-linejoin="round" d="M106.19635000000001 52.45043c-2.23079 2.3253150000000002 -5.72324 2.603915 -7.807765000000001 0.6049599999999999 -2.084525 -1.9989549999999998 -1.9661199999999999 -5.501355 0.26467 -7.82667 2.23079 -2.3253150000000002 5.72324 -2.603915 7.807765000000001 -0.6049599999999999 2.084525 1.9989549999999998 1.9661199999999999 5.501355 -0.26467 7.82667Z" stroke-width="1"></path><path id="Vector_41" stroke="#120071" stroke-linecap="round" stroke-linejoin="round" d="M36.1185 181.433275c-1.47459 1.4925 -2.63078 2.7700799999999997 -4.1591 3.2516599999999998 -1.3611600000000001 0.397005 -2.7866965 0.52536 -4.19691 0.3781 -5.9560699999999995 -0.47461499999999995 -17.82244 4.8008750000000004 -18.223425000000002 1.569115 -0.11243500000000001 -0.90744 3.535235 -3.5919499999999998 7.845575 -6.4675 2.7223200000000003 -1.81488 6.84361 -4.952115 10.472375 -7.80677" stroke-width="1"></path><path id="Vector_42" stroke="#120071" stroke-linecap="round" stroke-linejoin="round" d="M155.55531499999998 123.43572c2.4009349999999996 -0.623865 4.25263 -1.320365 6.010795000000001 -0.90744 1.370115 0.34825 2.659635 0.9561949999999999 3.799905 1.791 4.89142 3.4208100000000004 17.797565 4.89142 16.52297 7.88239 -0.36218 0.84973 -4.875500000000001 1.3054400000000002 -10.038555 1.606925 -3.55414 0.20895 -9.301260000000001 0.90744 -14.158850000000001 1.592" stroke-width="1"></path><path id="Vector_43" stroke="#120071" stroke-linecap="round" stroke-linejoin="round" d="M146.15554999999998 69.332595c0.70844 -0.05870499999999999 1.47658 0.4975 2.158155 1.67956" stroke-width="1"></path><path id="Vector_44" stroke="#120071" stroke-linecap="round" stroke-linejoin="round" d="M149.0709 82.508385c-0.41591 0.90744 -0.9830599999999999 1.47459 -1.6258299999999999 1.531305" stroke-width="1"></path><path id="Vector_45" stroke="#120071" stroke-linecap="round" stroke-linejoin="round" d="M123.64467 33.319565000000004c0.02786 0.16755799999999998 -0.00995 0.3395935 -0.10547 0.479789 -0.096515 0.1401955 -0.243775 0.23770550000000001 -0.40993999999999997 0.2719335 -0.166165 0.034228 -0.339295 0.0026865 -0.48357 -0.088157 -0.14328 -0.09084350000000001 -0.24576499999999998 -0.23382499999999998 -0.28656 -0.39889549999999996l-1.606925 -7.8605c-0.034825 -0.1680555 -0.00199 -0.343076 0.09154 -0.4866545 0.094525 -0.1435785 0.241785 -0.243974 0.40993999999999997 -0.27899799999999997 0.16716 -0.035123499999999995 0.34228 -0.0020894999999999998 0.486555 0.09183849999999999 0.14328 0.0940275 0.243775 0.24108849999999998 0.2786 0.409144l1.6258299999999999 7.8605Z" stroke-width="1"></path><path id="Vector_46" stroke="#120071" stroke-linecap="round" stroke-linejoin="round" d="m120.449725 21.01241 0.9452499999999999 4.57501" stroke-width="1"></path><path id="Vector_47" stroke="#120071" stroke-linecap="round" stroke-linejoin="round" d="M118.12441 9.6514801c-1.123355 0.23006390000000002 -2.1531800000000003 0.7880598999999999 -2.95913 1.6033629 -0.806945 0.8154025 -1.3532000000000002 1.851496 -1.5701100000000001 2.9773385 -0.217905 1.1258424999999999 -0.096515 2.290888 0.34825 3.347777 0.444765 1.056889 1.193005 1.95816 2.150195 2.589985 0.9561949999999999 0.6317255 2.07955 0.9655480000000001 3.22579 0.9592795 1.147235 -0.0062685 2.265615 -0.352429 3.21584 -0.9947015 0.950225 -0.642173 1.68752 -1.5516029999999998 2.12134 -2.6133675 0.432825 -1.0616649999999999 0.54128 -2.228004 0.311435 -3.351359 -0.152235 -0.7461505 -0.450735 -1.4549885 -0.876595 -2.085918 -0.426855 -0.6309295 -0.97311 -1.1716125 -1.608915 -1.5912039999999998 -0.6358050000000001 -0.4195915 -1.3472300000000001 -0.7099026500000001 -2.0954699999999997 -0.8542274 -0.747245 -0.14432475 -1.51638 -0.139897 -2.26263 0.013034500000000001Z" stroke-width="1"></path><path id="Vector_48" stroke="#120071" stroke-linecap="round" stroke-linejoin="round" d="m187.67292 115.741385 -2.2118849999999997 -0.661675" stroke-width="1"></path><path id="Vector_49" stroke="#120071" stroke-linecap="round" stroke-linejoin="round" d="m190.35743 114.26679499999999 0.6427700000000001 -2.2118849999999997" stroke-width="1"></path><path id="Vector_50" stroke="#120071" stroke-linecap="round" stroke-linejoin="round" d="m188.48583499999998 120.61887499999999 0.661675 -2.1929800000000004" stroke-width="1"></path><path id="Vector_51" stroke="#120071" stroke-linecap="round" stroke-linejoin="round" d="m191.83202 116.951305 2.1929800000000004 0.6427700000000001" stroke-width="1"></path><path id="Vector_52" stroke="#120071" stroke-linecap="round" stroke-linejoin="round" d="M191.836 116.951305c-0.55123 -0.162185 -1.0149 -0.5353100000000001 -1.29151 -1.03878s-0.34228 -1.0954949999999999 -0.18308 -1.6477199999999999c-0.162185 0.55123 -0.5353100000000001 1.0149 -1.03878 1.29151s-1.0954949999999999 0.34228 -1.6477199999999999 0.18308c0.55123 0.162185 1.0149 0.5353100000000001 1.29151 1.03878s0.34228 1.0954949999999999 0.18308 1.6477199999999999c0.162185 -0.55123 0.5353100000000001 -1.0149 1.03878 -1.29151s1.0954949999999999 -0.34228 1.6477199999999999 -0.18308v0Z" stroke-width="1"></path><path id="Vector_53" stroke="#120071" stroke-linecap="round" stroke-linejoin="round" d="M51.317125000000004 54.2275c-1.1353945 -2.724708 -1.97209 -5.564438 -2.49546 -8.46944" stroke-width="1"></path><path id="Vector_54" stroke="#120071" stroke-linecap="round" stroke-linejoin="round" d="m55.514035 44.302375 -13.459365 2.892465c-0.6267505 0.13532 -1.28156 0.016118999999999998 -1.820452 -0.331335 -0.5388919999999999 -0.347454 -0.9176885 -0.8947039999999999 -1.053108 -1.521355l-5.690405 -26.52272 8.20477 -1.758165c0.4577995 -0.0944255 0.932912 -0.055918999999999996 1.369518 0.110843 0.436606 0.1668615 0.8163975 0.45501349999999996 1.0945995000000002 0.830626 0.278202 0.375513 0.4432725 0.822865 0.47561 1.289122 0.0323375 0.46625700000000003 -0.0693515 0.9320165 -0.2930275 1.342454 -0.5007834999999999 0.9427625000000001 -0.7219720000000001 2.0088055 -0.6374965 3.072958 0.084376 1.0641524999999998 0.4709335 2.082137 1.1141014999999999 2.9341555 0.643168 0.851919 1.516181 1.502649 2.5164545 1.875376 1.0002735 0.37282649999999995 2.0862165 0.4522275 3.130071 0.22904899999999997 1.0439539999999998 -0.22327799999999998 2.002338 -0.7399815000000001 2.7627170000000003 -1.4893159999999999 0.7602795 -0.7493345 1.2908134999999998 -1.7001565 1.5292154999999998 -2.7407275 0.238402 -1.0404715 0.17472200000000002 -2.127509 -0.1835775 -3.133056 -0.35819999999999996 -1.0056464999999999 -0.9960945000000001 -1.8880124999999999 -1.8386605 -2.543419 -0.3696425 -0.2842715 -0.6510285 -0.667645 -0.8112235 -1.1055445 -0.160195 -0.4378995 -0.192632 -0.9123155000000001 -0.09353 -1.3680255 0.09900250000000001 -0.4556105 0.32556399999999996 -0.873809 0.6530185 -1.2056415 0.327554 -0.331932 0.742668 -0.5638664999999999 1.196985 -0.6689385l8.790825000000002 -1.909405L68.180385 39.1035c0.13532 0.6266510000000001 0.016118999999999998 1.2814605000000001 -0.331335 1.8203524999999998 -0.3473545 0.5388919999999999 -0.8946045 0.9176885 -1.521355 1.0532075l-8.148055 1.758165" stroke-width="1"></path><path id="Vector_55" stroke="#120071" stroke-linecap="round" stroke-linejoin="round" d="M54.946885 51.80766c-1.077585 -1.32335 -1.43678 -4.518295 0.45372 -5.97 0 0 0.251735 -5.34514 1.17211 -6.5590399999999995 0.920375 -1.2139 1.435785 3.81483 1.833785 5.72324 0.261685 1.2487249999999999 0.9452499999999999 4.140194999999999 1.6258299999999999 6.522225" stroke-width="1"></path><path id="Vector_56" stroke="#120071" stroke-linecap="round" stroke-linejoin="round" d="m76.864745 88.157 2.997935 -7.2635c-0.9821645 2.33825 -1.3089225 4.899778 -0.9452499999999999 7.409765" stroke-width="1"></path><path id="Vector_57" stroke="#120071" stroke-linecap="round" stroke-linejoin="round" d="M146.15554999999998 69.332595c-16.55879 2.154175 -33.47578 3.57205 -42.79495 2.8347550000000004 -7.48638 1.8526900000000002 -14.518044999999999 2.060645 -20.92684 0 -3.3083750000000003 -0.15123999999999999 -7.9401 -1.02087 -14.46133 -3.1949449999999997l-5.350115 -17.051315c-0.5671499999999999 -1.8526900000000002 -13.68722 2.15517 -13.12007 4.00786l8.677395 26.881915c6.439938499999999 3.2947435 13.511503 5.1703185 20.73779 5.50036 0.45372 3.2516599999999998 2.0228349999999997 7.845575 5.803835 15.08619 4.064575 2.4198399999999998 12.8355 -1.039775 17.0145 -5.387925 0.737295 -3.4029 1.3989699999999998 -6.7868949999999995 2.07955 -9.640555 14.665305 0.496704 29.33061 -0.9591799999999999 43.611845 -4.329245 -3.89642 0.33631 -5.2416599999999995 -14.371780000000001 -1.2716100000000001 -14.707095Z" stroke-width="1"></path><path id="Vector_58" stroke="#120071" stroke-linecap="round" stroke-linejoin="round" d="M33.034000000000006 164.32524500000002c-2.968085 2.587 8.258500000000002 15.4225 11.210664999999999 12.854405" stroke-width="1"></path><path id="Vector_59" stroke="#120071" stroke-linecap="round" stroke-linejoin="round" d="M146.480915 122.81185500000001c2.6088899999999997 -0.47262499999999996 5.52026 15.55782 2.9113700000000002 16.030445" stroke-width="1"></path><path id="Vector_60" stroke="#120071" stroke-linecap="round" stroke-linejoin="round" d="M134.968765 167.67143000000002 127.822675 186.065" stroke-width="1"></path><path id="Vector_61" stroke="#120071" stroke-linecap="round" stroke-linejoin="round" d="m140.60146 180.43131 -18.412475 -7.12619" stroke-width="1"></path><path id="Vector_62" stroke="#120071" stroke-linecap="round" stroke-linejoin="round" d="M7.08142495 104.05909c0.3781 -1.077585 1.05868 -1.720355 3.02479005 -3.06261 4.162084999999999 -2.84172 3.383 -6.100345 0.9263450000000001 -7.07047 -0.434218 -0.16765750000000001 -0.8999775 -0.23810350000000002 -1.36441365 -0.206363 -0.4644262 0.03184 -0.91622585 0.16507049999999998 -1.32357885 0.390438 -0.40735299999999997 0.225268 -0.76034915 0.5371009999999999 -1.03411345 0.913609 -0.27377425 0.376508 -0.46165015 0.8084375 -0.5504141 1.265441" stroke-width="1"></path><path id="Vector_63" stroke="#120071" stroke-linecap="round" stroke-linejoin="round" d="M38.3871 174.72199999999998c19.263199999999998 -18.046315 37.586324 -37.06972 54.897135 -56.996585" stroke-width="1"></path><path id="Vector_64" stroke="#120071" stroke-linecap="round" stroke-linejoin="round" d="M97.4105 101.317865s10.11119 4.46158 11.059425000000001 12.57083c0.52735 4.518295 3.51633 13.857365 5.10435 18.62043 0.27462000000000003 0.82585 0.828835 1.531305 1.5671249999999999 1.992985 0.73829 0.462675 1.61389 0.653715 2.4775500000000004 0.540285l32.34546 -4.23472" stroke-width="1"></path></g></g></svg>