<svg width="192" height="52" viewBox="0 0 192 52" fill="none" xmlns="http://www.w3.org/2000/svg">
<path d="M3.336 42V2.4H14.688C18.496 2.4 21.48 3.232 23.64 4.896C25.8 6.56 26.88 9.048 26.88 12.36C26.88 16.472 25.184 19.376 21.792 21.072C24.56 21.504 26.68 22.568 28.152 24.264C29.64 25.944 30.384 28.152 30.384 30.888C30.384 33.192 29.864 35.176 28.824 36.84C27.784 38.504 26.304 39.784 24.384 40.68C22.464 41.56 20.192 42 17.568 42H3.336ZM11.088 18.432H12.888C14.984 18.432 16.592 18 17.712 17.136C18.832 16.256 19.392 15 19.392 13.368C19.392 11.72 18.848 10.488 17.76 9.672C16.672 8.84 15.048 8.424 12.888 8.424H11.088V18.432ZM11.088 35.952H14.928C17.36 35.952 19.184 35.504 20.4 34.608C21.632 33.712 22.248 32.392 22.248 30.648C22.248 28.872 21.616 27.512 20.352 26.568C19.104 25.608 17.296 25.128 14.928 25.128H11.088V35.952ZM36.1253 42V0.719999H43.4933V42H36.1253ZM64.3965 42.768C61.6925 42.768 59.2525 42.216 57.0765 41.112C54.9005 39.992 53.1725 38.456 51.8925 36.504C50.6125 34.536 49.9725 32.272 49.9725 29.712C49.9725 27.152 50.6045 24.896 51.8685 22.944C53.1485 20.976 54.8765 19.44 57.0525 18.336C59.2445 17.216 61.6925 16.656 64.3965 16.656C67.1165 16.656 69.5645 17.216 71.7405 18.336C73.9165 19.44 75.6365 20.976 76.9005 22.944C78.1805 24.896 78.8205 27.152 78.8205 29.712C78.8205 32.272 78.1805 34.536 76.9005 36.504C75.6365 38.456 73.9165 39.992 71.7405 41.112C69.5645 42.216 67.1165 42.768 64.3965 42.768ZM64.4205 36.48C65.6685 36.48 66.8045 36.192 67.8285 35.616C68.8525 35.04 69.6605 34.248 70.2525 33.24C70.8445 32.216 71.1405 31.04 71.1405 29.712C71.1405 28.384 70.8445 27.216 70.2525 26.208C69.6605 25.184 68.8525 24.384 67.8285 23.808C66.8045 23.232 65.6685 22.944 64.4205 22.944C63.1565 22.944 62.0125 23.232 60.9885 23.808C59.9805 24.384 59.1805 25.184 58.5885 26.208C57.9965 27.216 57.7005 28.384 57.7005 29.712C57.7005 31.04 57.9965 32.216 58.5885 33.24C59.1805 34.248 59.9805 35.04 60.9885 35.616C62.0125 36.192 63.1565 36.48 64.4205 36.48ZM96.84 42.768C94.968 42.768 93.2 42.432 91.536 41.76C89.888 41.088 88.432 40.16 87.168 38.976C85.904 37.776 84.912 36.392 84.192 34.824C83.472 33.24 83.112 31.544 83.112 29.736C83.112 27.992 83.448 26.336 84.12 24.768C84.808 23.2 85.768 21.808 87 20.592C88.248 19.376 89.704 18.416 91.368 17.712C93.048 17.008 94.864 16.656 96.816 16.656C98.4 16.656 99.92 16.88 101.376 17.328C102.848 17.776 104.032 18.352 104.928 19.056L102.408 24.024C101.208 23.144 99.72 22.704 97.944 22.704C96.424 22.704 95.136 23.04 94.08 23.712C93.024 24.384 92.216 25.256 91.656 26.328C91.112 27.4 90.84 28.528 90.84 29.712C90.84 31.008 91.136 32.192 91.728 33.264C92.32 34.32 93.152 35.16 94.224 35.784C95.312 36.408 96.568 36.72 97.992 36.72C98.872 36.72 99.696 36.6 100.464 36.36C101.232 36.12 101.88 35.8 102.408 35.4L104.928 40.368C104.016 41.056 102.84 41.624 101.4 42.072C99.96 42.536 98.44 42.768 96.84 42.768ZM110.891 42V0.719999H118.259V26.4L127.331 17.424H136.883L124.859 29.472L137.435 42H127.979L118.259 32.28V42H110.891ZM150.441 42.768C147.993 42.768 146.089 41.992 144.729 40.44C143.369 38.872 142.689 36.688 142.689 33.888V23.016H139.401V17.424H142.689V8.208H150.057V17.424H155.457V23.016H150.057V33.36C150.057 34.288 150.241 34.992 150.609 35.472C150.993 35.952 151.529 36.192 152.217 36.192C152.985 36.192 153.721 35.936 154.425 35.424L156.273 41.328C155.441 41.776 154.505 42.128 153.465 42.384C152.441 42.64 151.433 42.768 150.441 42.768ZM174.881 42.768C172.177 42.768 169.737 42.216 167.561 41.112C165.385 39.992 163.657 38.456 162.377 36.504C161.097 34.536 160.457 32.272 160.457 29.712C160.457 27.152 161.089 24.896 162.353 22.944C163.633 20.976 165.361 19.44 167.537 18.336C169.729 17.216 172.177 16.656 174.881 16.656C177.601 16.656 180.049 17.216 182.225 18.336C184.401 19.44 186.121 20.976 187.385 22.944C188.665 24.896 189.305 27.152 189.305 29.712C189.305 32.272 188.665 34.536 187.385 36.504C186.121 38.456 184.401 39.992 182.225 41.112C180.049 42.216 177.601 42.768 174.881 42.768ZM174.905 36.48C176.153 36.48 177.289 36.192 178.313 35.616C179.337 35.04 180.145 34.248 180.737 33.24C181.329 32.216 181.625 31.04 181.625 29.712C181.625 28.384 181.329 27.216 180.737 26.208C180.145 25.184 179.337 24.384 178.313 23.808C177.289 23.232 176.153 22.944 174.905 22.944C173.641 22.944 172.497 23.232 171.473 23.808C170.465 24.384 169.665 25.184 169.073 26.208C168.481 27.216 168.185 28.384 168.185 29.712C168.185 31.04 168.481 32.216 169.073 33.24C169.665 34.248 170.465 35.04 171.473 35.616C172.497 36.192 173.641 36.48 174.905 36.48Z" fill="#EEEEEE"/>
<circle cx="64.5" cy="8.5" r="4.5" fill="#DB8C09"/>
</svg>
