<svg width="352" height="193" viewBox="0 0 352 193" fill="none" xmlns="http://www.w3.org/2000/svg">
<g filter="url(#filter0_bd_1004_3850)">
<g clip-path="url(#clip0_1004_3850)">
<rect width="329" height="169" rx="14" fill="url(#paint0_linear_1004_3850)" shape-rendering="crispEdges"/>
<path d="M118 209L121.753 200.221C125.506 191.441 133.013 173.883 140.519 158.856C148.026 143.83 155.532 131.336 163.039 135.112C170.545 138.887 178.052 158.933 185.558 154.783C193.065 150.633 200.571 122.286 208.078 118.689C215.584 115.092 223.091 136.243 230.597 134.686C238.104 133.129 245.61 108.864 253.117 91.9713C260.623 75.0789 268.13 65.5592 275.636 72.0537C283.143 78.5482 290.649 101.057 298.156 106.55C305.662 112.043 313.169 100.521 320.675 99.043C328.182 97.5652 335.688 106.132 343.195 109.574C350.701 113.016 358.208 111.333 365.714 96.2679C373.221 81.2025 380.727 52.7542 388.234 47.1144C395.74 41.4746 403.247 58.6432 407 67.2275" stroke="#21FF38"/>
</g>
<rect x="0.5" y="0.5" width="328" height="168" rx="13.5" stroke="white" stroke-opacity="0.6" shape-rendering="crispEdges"/>
</g>
<defs>
<filter id="filter0_bd_1004_3850" x="-20" y="-20" width="393" height="213" filterUnits="userSpaceOnUse" color-interpolation-filters="sRGB">
<feFlood flood-opacity="0" result="BackgroundImageFix"/>
<feGaussianBlur in="BackgroundImageFix" stdDeviation="10"/>
<feComposite in2="SourceAlpha" operator="in" result="effect1_backgroundBlur_1004_3850"/>
<feColorMatrix in="SourceAlpha" type="matrix" values="0 0 0 0 0 0 0 0 0 0 0 0 0 0 0 0 0 0 127 0" result="hardAlpha"/>
<feOffset dx="40" dy="20"/>
<feGaussianBlur stdDeviation="2"/>
<feComposite in2="hardAlpha" operator="out"/>
<feColorMatrix type="matrix" values="0 0 0 0 0 0 0 0 0 0 0 0 0 0 0 0 0 0 0.1 0"/>
<feBlend mode="normal" in2="effect1_backgroundBlur_1004_3850" result="effect2_dropShadow_1004_3850"/>
<feBlend mode="normal" in="SourceGraphic" in2="effect2_dropShadow_1004_3850" result="shape"/>
</filter>
<linearGradient id="paint0_linear_1004_3850" x1="-1.63231e-06" y1="16.6183" x2="298.154" y2="208.284" gradientUnits="userSpaceOnUse">
<stop offset="0.0119154" stop-color="white" stop-opacity="0.5"/>
<stop offset="1" stop-color="white" stop-opacity="0.2"/>
</linearGradient>
<clipPath id="clip0_1004_3850">
<rect width="329" height="169" rx="14" fill="white"/>
</clipPath>
</defs>
</svg>
