<svg width="256" height="188" viewBox="0 0 256 188" fill="none" xmlns="http://www.w3.org/2000/svg">
<path fill-rule="evenodd" clip-rule="evenodd" d="M103.399 144.883C100.88 142.197 82.8621 129.628 79.4671 128.188C76.5305 127.006 72.8416 126.459 70.7559 129.426C68.9173 132.354 68.8206 136.019 70.0113 139.211C71.3549 143.607 73.8224 147.512 77.1136 150.595C78.8777 152.224 80.8688 153.604 83.0747 154.754C87.1025 156.776 91.6307 157.75 96.238 157.515C99.6546 157.528 103.079 156.184 105.211 153.461C107.297 150.494 105.519 147.228 103.399 144.883ZM184.604 73.2841C183.921 58.4258 175.44 43.842 163.136 35.2589L162.607 34.8899C150.562 26.4873 134.487 23.5436 120.388 27.498C110.82 30.2788 103.784 35.0293 96.8178 44.9407L95.0533 47.4512C89.8516 54.8521 84.9514 57.9348 76.9621 59.8533C71.0906 61.2767 66.697 65.2965 63.0721 70.454C59.4513 75.6056 57.7188 81.6852 58.332 88.0301C59.4367 95.8943 63.5853 103.317 69.6336 108.323C78.1853 115.863 87.2001 122.744 96.6296 129.322C106.053 135.895 115.821 141.718 125.67 147.412C132.455 151.358 140.875 152.703 148.676 151.052C154.871 149.456 160.007 145.75 163.628 140.599C167.253 135.441 169.548 129.957 168.876 123.97C168.088 115.929 169.191 110.197 174.393 102.796L176.157 100.285C182.94 90.6352 185.081 82.8771 184.604 73.2841ZM166.201 61.3687C167.571 59.7894 169.916 59.6002 171.473 60.9267C176.295 65.305 177.859 72.3293 175.35 78.4111L175.149 78.9321C174.303 80.7234 172.212 81.5584 170.398 80.8974C169.47 80.425 168.718 79.6283 168.394 78.6418C168.069 77.6554 168.142 76.5685 168.614 75.5988L168.666 75.4631C169.852 72.4028 169.044 68.8981 166.645 66.7387C165.058 65.3598 164.875 62.9654 166.201 61.3687Z" fill="#DB8C09"/>
<path d="M52.8373 32.8566C52.789 32.8566 52.7412 32.847 52.6966 32.8284C52.652 32.8099 52.6115 32.7826 52.5773 32.7483C52.5432 32.714 52.5161 32.6732 52.4977 32.6284C52.4793 32.5835 52.4698 32.5354 52.4698 32.4869V22.058C52.4684 22.0085 52.4768 21.9593 52.4946 21.9132C52.5125 21.8671 52.5393 21.8251 52.5736 21.7896C52.6079 21.7541 52.6489 21.7259 52.6942 21.7066C52.7395 21.6874 52.7882 21.6774 52.8374 21.6774C52.8866 21.6774 52.9353 21.6874 52.9806 21.7066C53.026 21.7259 53.067 21.7541 53.1012 21.7896C53.1355 21.8251 53.1624 21.8671 53.1802 21.9132C53.198 21.9593 53.2065 22.0085 53.205 22.058V32.4869C53.205 32.5355 53.1956 32.5836 53.1771 32.6284C53.1586 32.6733 53.1315 32.7141 53.0974 32.7484C53.0632 32.7827 53.0227 32.81 52.978 32.8285C52.9334 32.8471 52.8856 32.8566 52.8373 32.8566Z" fill="#FDFDFD"/>
<path d="M56.2226 27.6423H49.4522C49.3547 27.6423 49.2612 27.6033 49.1922 27.534C49.1232 27.4647 49.0845 27.3706 49.0845 27.2726C49.0845 27.1746 49.1232 27.0805 49.1922 27.0112C49.2612 26.9419 49.3547 26.9029 49.4522 26.9029H56.2226C56.3201 26.9029 56.4136 26.9419 56.4826 27.0112C56.5516 27.0805 56.5903 27.1746 56.5903 27.2726C56.5903 27.3706 56.5516 27.4647 56.4826 27.534C56.4136 27.6033 56.3201 27.6423 56.2226 27.6423Z" fill="#FDFDFD"/>
<path d="M3.75278 72.7746C3.7045 72.7746 3.6567 72.7651 3.6121 72.7465C3.5675 72.7279 3.52698 72.7007 3.49286 72.6663C3.45873 72.632 3.43168 72.5913 3.41323 72.5464C3.39478 72.5016 3.38531 72.4535 3.38535 72.405V61.976C3.38391 61.9266 3.39234 61.8773 3.41017 61.8312C3.42799 61.7851 3.45483 61.7431 3.48911 61.7076C3.52339 61.6721 3.5644 61.6439 3.60972 61.6247C3.65504 61.6054 3.70374 61.5955 3.75294 61.5955C3.80214 61.5955 3.85085 61.6054 3.89617 61.6247C3.94148 61.6439 3.9825 61.6721 4.01677 61.7076C4.05105 61.7431 4.07789 61.7851 4.09572 61.8312C4.11354 61.8773 4.12198 61.9266 4.12053 61.976V72.405C4.12057 72.4535 4.11109 72.5016 4.09262 72.5465C4.07416 72.5913 4.04707 72.6321 4.01291 72.6665C3.97876 72.7008 3.9382 72.728 3.89356 72.7466C3.84893 72.7651 3.80109 72.7747 3.75278 72.7746Z" fill="#FDFDFD"/>
<path d="M7.13808 67.5603H0.367749C0.270216 67.5603 0.176678 67.5214 0.107711 67.452C0.0387449 67.3827 0 67.2887 0 67.1906C0 67.0926 0.0387449 66.9986 0.107711 66.9293C0.176678 66.8599 0.270216 66.821 0.367749 66.821H7.13808C7.23561 66.821 7.32915 66.8599 7.39812 66.9293C7.46708 66.9986 7.50583 67.0926 7.50583 67.1906C7.50583 67.2887 7.46708 67.3827 7.39812 67.452C7.32915 67.5214 7.23561 67.5603 7.13808 67.5603Z" fill="#FDFDFD"/>
<path d="M8.78293 156.888C8.73466 156.888 8.68685 156.878 8.64225 156.86C8.59765 156.841 8.55713 156.814 8.52301 156.78C8.48889 156.745 8.46183 156.705 8.44338 156.66C8.42493 156.615 8.41546 156.567 8.4155 156.518V146.089C8.41406 146.04 8.4225 145.991 8.44032 145.945C8.45814 145.898 8.48499 145.856 8.51926 145.821C8.55354 145.785 8.59455 145.757 8.63987 145.738C8.68519 145.719 8.73389 145.709 8.78309 145.709C8.8323 145.709 8.881 145.719 8.92632 145.738C8.97164 145.757 9.01265 145.785 9.04692 145.821C9.0812 145.856 9.10805 145.898 9.12587 145.945C9.14369 145.991 9.15213 146.04 9.15068 146.089V156.518C9.15073 156.567 9.14124 156.615 9.12278 156.66C9.10431 156.705 9.07722 156.745 9.04307 156.78C9.00891 156.814 8.96835 156.841 8.92372 156.86C8.87908 156.878 8.83124 156.888 8.78293 156.888Z" fill="#FDFDFD"/>
<path d="M12.1682 151.674H5.3979C5.30037 151.674 5.20683 151.635 5.13786 151.565C5.0689 151.496 5.03015 151.402 5.03015 151.304C5.03015 151.206 5.0689 151.112 5.13786 151.043C5.20683 150.973 5.30037 150.934 5.3979 150.934H12.1682C12.2658 150.934 12.3593 150.973 12.4283 151.043C12.4972 151.112 12.536 151.206 12.536 151.304C12.536 151.402 12.4972 151.496 12.4283 151.565C12.3593 151.635 12.2658 151.674 12.1682 151.674Z" fill="#FDFDFD"/>
<path d="M227.991 75.9723C227.893 75.9723 227.8 75.9334 227.731 75.864C227.662 75.7947 227.623 75.7007 227.623 75.6026V59.7388C227.623 59.6407 227.662 59.5467 227.731 59.4774C227.8 59.4081 227.893 59.3691 227.991 59.3691C228.088 59.3691 228.182 59.4081 228.251 59.4774C228.32 59.5467 228.358 59.6407 228.358 59.7388V75.6026C228.358 75.7006 228.32 75.7946 228.251 75.8639C228.182 75.9332 228.088 75.9722 227.991 75.9723Z" fill="#FDFDFD"/>
<path d="M233.141 68.0404H222.842C222.745 68.0404 222.651 68.0014 222.582 67.9321C222.513 67.8628 222.474 67.7688 222.474 67.6707C222.474 67.5727 222.513 67.4786 222.582 67.4093C222.651 67.34 222.745 67.301 222.842 67.301H233.141C233.239 67.301 233.332 67.34 233.401 67.4093C233.47 67.4786 233.509 67.5727 233.509 67.6707C233.509 67.7688 233.47 67.8628 233.401 67.9321C233.332 68.0014 233.239 68.0404 233.141 68.0404Z" fill="#FDFDFD"/>
<path d="M38.1754 119.216C38.0778 119.216 37.9843 119.177 37.9153 119.108C37.8464 119.038 37.8076 118.944 37.8076 118.846V102.982C37.8076 102.884 37.8464 102.79 37.9153 102.721C37.9843 102.652 38.0778 102.613 38.1754 102.613C38.2729 102.613 38.3664 102.652 38.4354 102.721C38.5044 102.79 38.5431 102.884 38.5431 102.982V118.846C38.543 118.944 38.5043 119.038 38.4353 119.107C38.3664 119.177 38.2729 119.216 38.1754 119.216Z" fill="#FDFDFD"/>
<path d="M43.3257 111.284H33.0268C32.9293 111.284 32.8357 111.245 32.7668 111.176C32.6978 111.106 32.6591 111.012 32.6591 110.914C32.6591 110.816 32.6978 110.722 32.7668 110.653C32.8357 110.584 32.9293 110.545 33.0268 110.545H43.3257C43.4232 110.545 43.5167 110.584 43.5857 110.653C43.6547 110.722 43.6934 110.816 43.6934 110.914C43.6934 111.012 43.6547 111.106 43.5857 111.176C43.5167 111.245 43.4232 111.284 43.3257 111.284Z" fill="#FDFDFD"/>
<path d="M53.599 183.982C53.5014 183.982 53.4079 183.943 53.3389 183.873C53.2699 183.804 53.2312 183.71 53.2312 183.612V167.748C53.2312 167.65 53.2699 167.556 53.3389 167.487C53.4079 167.417 53.5014 167.378 53.599 167.378C53.6965 167.378 53.79 167.417 53.859 167.487C53.9279 167.556 53.9667 167.65 53.9667 167.748V183.612C53.9666 183.71 53.9279 183.804 53.8589 183.873C53.79 183.942 53.6965 183.981 53.599 183.982Z" fill="#FDFDFD"/>
<path d="M58.7494 176.05H48.4505C48.353 176.05 48.2594 176.011 48.1905 175.941C48.1215 175.872 48.0828 175.778 48.0828 175.68C48.0828 175.582 48.1215 175.488 48.1905 175.419C48.2594 175.349 48.353 175.31 48.4505 175.31H58.7494C58.8469 175.31 58.9405 175.349 59.0094 175.419C59.0784 175.488 59.1171 175.582 59.1171 175.68C59.1171 175.778 59.0784 175.872 59.0094 175.941C58.9405 176.011 58.8469 176.05 58.7494 176.05Z" fill="#FDFDFD"/>
<path d="M206.863 148.706C206.765 148.706 206.671 148.667 206.602 148.598C206.533 148.528 206.495 148.434 206.495 148.336V132.472C206.495 132.374 206.533 132.28 206.602 132.211C206.671 132.142 206.765 132.103 206.863 132.103C206.96 132.103 207.054 132.142 207.123 132.211C207.191 132.28 207.23 132.374 207.23 132.472V148.336C207.23 148.434 207.191 148.528 207.122 148.597C207.054 148.667 206.96 148.706 206.863 148.706Z" fill="#FDFDFD"/>
<path d="M212.013 140.774H201.714C201.617 140.774 201.523 140.735 201.454 140.666C201.385 140.596 201.346 140.502 201.346 140.404C201.346 140.306 201.385 140.212 201.454 140.143C201.523 140.074 201.617 140.035 201.714 140.035H212.013C212.11 140.035 212.204 140.074 212.273 140.143C212.342 140.212 212.381 140.306 212.381 140.404C212.381 140.502 212.342 140.596 212.273 140.666C212.204 140.735 212.11 140.774 212.013 140.774Z" fill="#FDFDFD"/>
<path d="M148.763 183.982C148.665 183.982 148.571 183.943 148.502 183.873C148.434 183.804 148.395 183.71 148.395 183.612V167.748C148.395 167.65 148.434 167.556 148.502 167.487C148.571 167.417 148.665 167.378 148.763 167.378C148.86 167.378 148.954 167.417 149.023 167.487C149.092 167.556 149.13 167.65 149.13 167.748V183.612C149.13 183.71 149.091 183.804 149.022 183.873C148.954 183.942 148.86 183.981 148.763 183.982Z" fill="#FDFDFD"/>
<path d="M153.913 176.05H143.614C143.517 176.05 143.423 176.011 143.354 175.941C143.285 175.872 143.246 175.778 143.246 175.68C143.246 175.582 143.285 175.488 143.354 175.419C143.423 175.349 143.517 175.31 143.614 175.31H153.913C154.011 175.31 154.104 175.349 154.173 175.419C154.242 175.488 154.281 175.582 154.281 175.68C154.281 175.778 154.242 175.872 154.173 175.941C154.104 176.011 154.011 176.05 153.913 176.05Z" fill="#FDFDFD"/>
<path d="M253.057 25.8192C253.009 25.8193 252.961 25.8097 252.917 25.7912C252.872 25.7726 252.831 25.7454 252.797 25.7111C252.763 25.6767 252.736 25.6359 252.717 25.5911C252.699 25.5462 252.69 25.4981 252.69 25.4496V17.5176C252.69 17.4196 252.728 17.3256 252.797 17.2562C252.866 17.1869 252.96 17.148 253.057 17.148C253.155 17.148 253.248 17.1869 253.317 17.2562C253.386 17.3256 253.425 17.4196 253.425 17.5176V25.4496C253.425 25.4981 253.416 25.5462 253.397 25.5911C253.379 25.6359 253.352 25.6767 253.317 25.7111C253.283 25.7454 253.243 25.7726 253.198 25.7912C253.153 25.8097 253.106 25.8193 253.057 25.8192Z" fill="#FDFDFD"/>
<path d="M255.632 21.8534H250.483C250.434 21.8534 250.387 21.8439 250.342 21.8253C250.297 21.8067 250.257 21.7795 250.223 21.7451C250.189 21.7108 250.161 21.6701 250.143 21.6252C250.124 21.5804 250.115 21.5323 250.115 21.4838C250.115 21.4352 250.124 21.3871 250.143 21.3423C250.161 21.2974 250.189 21.2567 250.223 21.2224C250.257 21.188 250.297 21.1608 250.342 21.1422C250.387 21.1236 250.434 21.1141 250.483 21.1141H255.632C255.73 21.1141 255.823 21.153 255.892 21.2224C255.961 21.2917 256 21.3857 256 21.4838C256 21.5818 255.961 21.6758 255.892 21.7451C255.823 21.8145 255.73 21.8534 255.632 21.8534Z" fill="#FDFDFD"/>
</svg>
