<svg width="239" height="164" viewBox="0 0 239 164" fill="none" xmlns="http://www.w3.org/2000/svg">
<path d="M79.0201 162.339H31.2743V136.492H77.5922" fill="#6D6D6D"/>
<path d="M45.4591 137.354L45.4711 152.173L49.6131 145.453L53.7551 152.173L57.4604 146.164L60.8446 151.656V137.269" stroke="white" stroke-width="1.19654" stroke-linecap="round" stroke-linejoin="round"/>
<path d="M52.2339 52.5422L50.8199 47.3121" stroke="#F3DFDF" stroke-width="1.19654" stroke-linecap="round" stroke-linejoin="round"/>
<path d="M79.7501 95.4238C80.0991 91.6894 81.1859 84.765 72.186 80.4665C63.186 76.168 57.6959 71.8953 55.2969 62.331" stroke="#F3DFDF" stroke-width="1.19654" stroke-linecap="round" stroke-linejoin="round"/>
<path d="M56.9595 60.9441L54.7164 52.6404C54.4838 51.7792 53.5942 51.2689 52.7295 51.5006L51.576 51.8098C50.7114 52.0415 50.199 52.9275 50.4317 53.7888L52.6748 62.0924C52.9074 62.9537 53.797 63.464 54.6617 63.2323L55.8152 62.9231C56.6799 62.6914 57.1922 61.8053 56.9595 60.9441Z" fill="#6D6D6D"/>
<path d="M36.4194 78.0014L30.9832 77.9974" stroke="#F3DFDF" stroke-width="1.19654" stroke-linecap="round" stroke-linejoin="round"/>
<path d="M45.7923 75.6455H37.1593C36.2638 75.6455 35.538 76.3686 35.538 77.2605V78.4503C35.538 79.3422 36.2638 80.0652 37.1593 80.0652H45.7923C46.6877 80.0652 47.4136 79.3422 47.4136 78.4503V77.2605C47.4136 76.3686 46.6877 75.6455 45.7923 75.6455Z" fill="#6D6D6D"/>
<path d="M46.1514 77.6478C46.1514 77.6478 66.1315 76.5275 75.4665 93.2427" stroke="#F3DFDF" stroke-width="1.19654" stroke-linecap="round" stroke-linejoin="round"/>
<path d="M164.305 115.127C169.668 115.127 173.479 116.374 173.734 128.394C173.989 140.413 173.455 151.278 183.984 151.139C193.714 151.01 191.553 147.089 196.05 147.262" stroke="#FF3737" stroke-width="1.19654" stroke-linecap="round" stroke-linejoin="round"/>
<path d="M206.344 142.437H195.1C194.383 142.437 193.802 143.016 193.802 143.731V150.707C193.802 151.421 194.383 152 195.1 152H206.344C207.061 152 207.642 151.421 207.642 150.707V143.731C207.642 143.016 207.061 142.437 206.344 142.437Z" fill="#6D6D6D"/>
<path d="M202.884 142.423L202.87 152.015" stroke="#F3DFDF" stroke-width="1.19654" stroke-linejoin="round"/>
<path d="M205.363 144.993H212.773" stroke="#F3DFDF" stroke-width="1.19654" stroke-linecap="round" stroke-linejoin="round"/>
<path d="M205.363 148.569H212.773" stroke="#F3DFDF" stroke-width="1.19654" stroke-linecap="round" stroke-linejoin="round"/>
<path d="M168.543 6.85779V11.7522" stroke="white" stroke-width="1.19654" stroke-linecap="round" stroke-linejoin="round"/>
<path d="M171 9.30496H166.088" stroke="white" stroke-width="1.19654" stroke-linecap="round" stroke-linejoin="round"/>
<path d="M133.6 24.7787V29.6712" stroke="white" stroke-width="1.19654" stroke-linecap="round" stroke-linejoin="round"/>
<path d="M136.055 27.226H131.143" stroke="white" stroke-width="1.19654" stroke-linecap="round" stroke-linejoin="round"/>
<path d="M105.402 0.999969V5.89239" stroke="white" stroke-width="1.19654" stroke-linecap="round" stroke-linejoin="round"/>
<path d="M107.857 3.4472H102.945" stroke="white" stroke-width="1.19654" stroke-linecap="round" stroke-linejoin="round"/>
<path d="M75.8195 40.8047V45.6971" stroke="white" stroke-width="1.19654" stroke-linecap="round" stroke-linejoin="round"/>
<path d="M78.2763 43.2499H73.3625" stroke="white" stroke-width="1.19654" stroke-linecap="round" stroke-linejoin="round"/>
<path d="M41.9135 21.8488V26.7432" stroke="white" stroke-width="1.19654" stroke-linecap="round" stroke-linejoin="round"/>
<path d="M44.3683 24.2961H39.4565" stroke="white" stroke-width="1.19654" stroke-linecap="round" stroke-linejoin="round"/>
<path d="M36.5511 94.3929V99.2854" stroke="white" stroke-width="1.19654" stroke-linecap="round" stroke-linejoin="round"/>
<path d="M39.0059 96.8401H34.0941" stroke="white" stroke-width="1.19654" stroke-linecap="round" stroke-linejoin="round"/>
<path d="M26.6896 53.8989V58.7933" stroke="white" stroke-width="1.19654" stroke-linecap="round" stroke-linejoin="round"/>
<path d="M29.1464 56.3461H24.2327" stroke="white" stroke-width="1.19654" stroke-linecap="round" stroke-linejoin="round"/>
<path d="M190.773 67.9425V72.8369" stroke="white" stroke-width="1.19654" stroke-linecap="round" stroke-linejoin="round"/>
<path d="M193.23 70.3897H188.318" stroke="white" stroke-width="1.19654" stroke-linecap="round" stroke-linejoin="round"/>
<path d="M199.856 27.363V32.2574" stroke="white" stroke-width="1.19654" stroke-linecap="round" stroke-linejoin="round"/>
<path d="M202.311 29.8102H197.399" stroke="white" stroke-width="1.19654" stroke-linecap="round" stroke-linejoin="round"/>
<path d="M218.02 99.2178V104.11" stroke="white" stroke-width="1.19654" stroke-linecap="round" stroke-linejoin="round"/>
<path d="M220.477 101.663H215.563" stroke="white" stroke-width="1.19654" stroke-linecap="round" stroke-linejoin="round"/>
<path d="M108.152 121.588C107.773 121.237 107.336 120.952 106.862 120.746C106.376 120.544 105.856 120.44 105.33 120.44C104.804 120.44 104.284 120.544 103.798 120.746C103.321 120.95 102.882 121.235 102.502 121.588C101.867 122.276 101.373 123.203 101.022 124.369C100.32 127.099 100.32 129.962 101.022 132.692C101.373 133.863 101.867 134.79 102.502 135.473C102.881 135.827 103.32 136.113 103.798 136.315C104.283 136.518 104.804 136.623 105.33 136.623C105.856 136.623 106.377 136.518 106.862 136.315C107.337 136.111 107.774 135.826 108.152 135.473C108.794 134.787 109.288 133.86 109.635 132.692C110.332 129.961 110.332 127.1 109.635 124.369C109.288 123.203 108.794 122.276 108.152 121.588ZM107.26 134.591C107.009 134.847 106.708 135.05 106.375 135.186C106.043 135.323 105.686 135.391 105.326 135.386C104.966 135.393 104.608 135.326 104.276 135.189C103.943 135.053 103.642 134.849 103.392 134.591C102.304 133.375 101.761 131.355 101.762 128.529C101.764 125.703 102.307 123.692 103.392 122.498C103.641 122.238 103.941 122.032 104.274 121.893C104.607 121.753 104.965 121.684 105.326 121.69C105.687 121.687 106.044 121.757 106.377 121.896C106.709 122.035 107.01 122.24 107.26 122.498C108.356 123.714 108.903 125.724 108.902 128.529C108.9 131.333 108.353 133.354 107.26 134.591Z" fill="white"/>
<path d="M170.824 104.797H149.54C149.451 104.796 149.363 104.775 149.283 104.736C149.181 104.736 149.082 104.71 148.993 104.661C148.905 104.612 148.83 104.541 148.776 104.456L137.058 85.784V161.133C137.058 161.291 136.995 161.442 136.883 161.554C136.771 161.666 136.619 161.729 136.46 161.729C136.301 161.729 136.149 161.666 136.037 161.554C135.925 161.442 135.862 161.291 135.862 161.133V85.1921L116.438 104.807C116.397 104.923 116.321 105.023 116.221 105.094C116.12 105.165 116.001 105.204 115.877 105.205H76.1943C76.1261 105.204 76.0585 105.191 75.9949 105.167V163H170.966V104.778C170.92 104.79 170.872 104.797 170.824 104.797ZM127.169 137.39C127.169 138.18 126.854 138.938 126.293 139.497C125.732 140.055 124.971 140.369 124.177 140.369H86.7996C86.0062 140.369 85.2454 140.055 84.6844 139.497C84.1234 138.938 83.8083 138.18 83.8083 137.39V120.087C83.8083 119.296 84.1234 118.538 84.6844 117.98C85.2454 117.421 86.0062 117.107 86.7996 117.107H124.177C124.971 117.107 125.732 117.421 126.293 117.98C126.854 118.538 127.169 119.296 127.169 120.087V137.39ZM157.746 132.142V152.301H152.212V131.796H147.715L155.327 110.602L162.592 132.142H157.746Z" fill="#F5C249"/>
<path d="M98.2484 131.363H96.3539V121.106C96.355 121.023 96.3395 120.941 96.3083 120.865C96.2771 120.788 96.2309 120.719 96.1723 120.661C96.1138 120.602 96.0441 120.556 95.9674 120.525C95.8907 120.494 95.8085 120.479 95.7257 120.48C95.6251 120.474 95.5246 120.494 95.434 120.538C95.3435 120.582 95.266 120.649 95.2092 120.732L87.6451 131.625C87.5706 131.732 87.5315 131.859 87.5335 131.989C87.5311 132.072 87.5459 132.154 87.5772 132.23C87.6084 132.307 87.6553 132.376 87.7149 132.434C87.7734 132.492 87.843 132.538 87.9198 132.57C87.9965 132.601 88.0788 132.616 88.1616 132.615H95.0976V136.003C95.0961 136.086 95.1117 136.168 95.1432 136.245C95.1748 136.321 95.2217 136.39 95.281 136.448C95.369 136.536 95.4812 136.596 95.6034 136.62C95.7256 136.644 95.8522 136.632 95.9672 136.584C96.0822 136.536 96.1804 136.456 96.2492 136.352C96.3181 136.249 96.3545 136.127 96.3539 136.003V132.615H98.2484C98.415 132.615 98.5748 132.549 98.6926 132.431C98.8104 132.314 98.8766 132.155 98.8766 131.989C98.8766 131.823 98.8104 131.664 98.6926 131.546C98.5748 131.429 98.415 131.363 98.2484 131.363ZM95.0976 131.363H89.3761L95.0976 123.132V131.363Z" fill="white"/>
<path d="M122.552 131.363H120.654V121.106C120.655 121.023 120.64 120.941 120.608 120.864C120.576 120.788 120.53 120.718 120.47 120.661C120.413 120.602 120.343 120.555 120.267 120.524C120.19 120.493 120.108 120.478 120.025 120.48C119.925 120.474 119.824 120.494 119.734 120.538C119.643 120.582 119.566 120.649 119.509 120.732L111.943 131.625C111.87 131.732 111.831 131.859 111.833 131.989C111.832 132.071 111.848 132.153 111.879 132.229C111.91 132.305 111.956 132.375 112.014 132.433C112.072 132.491 112.142 132.537 112.218 132.569C112.295 132.6 112.377 132.615 112.459 132.615H119.397V136.003C119.396 136.086 119.411 136.168 119.443 136.245C119.475 136.321 119.521 136.39 119.581 136.448C119.7 136.564 119.859 136.629 120.025 136.629C120.192 136.629 120.351 136.564 120.47 136.448C120.53 136.39 120.576 136.321 120.608 136.245C120.64 136.168 120.655 136.086 120.654 136.003V132.615H122.546C122.629 132.616 122.711 132.601 122.788 132.57C122.865 132.538 122.934 132.492 122.993 132.434C123.081 132.346 123.141 132.234 123.165 132.112C123.189 131.991 123.176 131.865 123.128 131.75C123.081 131.635 123 131.538 122.896 131.469C122.792 131.4 122.671 131.363 122.546 131.363H122.552ZM119.403 131.363H113.674L119.395 123.132L119.403 131.363Z" fill="white"/>
<path d="M115.271 104.021V100.507H53.9208L53.849 104.042L115.271 104.021Z" fill="#F5C249"/>
<path d="M192.803 100.094H150.138V103.607L192.801 103.625L192.799 100.102" fill="#F5C249"/>
<path d="M192.791 98.7292L170.609 78.7781H163.671C163.671 78.7781 164.162 85.5735 158.05 86.5249C156.751 86.7832 153.523 84.6577 151.965 80.3493C151.889 79.7653 153.206 88.8788 147.901 89.3376C140.865 89.3952 131.409 79.2072 131.409 79.2072H75.9932L53.9729 99.3251H115.497L133.616 81.0207C133.729 80.9145 133.879 80.8561 134.034 80.8576C134.189 80.8592 134.337 80.9207 134.448 81.0292C134.558 81.1376 134.622 81.2846 134.626 81.439C134.629 81.5934 134.573 81.7433 134.468 81.857L116.466 100.032V103.081L135.852 83.4957C135.931 83.4179 136.029 83.363 136.137 83.3368L136.193 83.2931C136.327 83.2095 136.489 83.1825 136.644 83.2178C136.798 83.2532 136.932 83.3481 137.017 83.4818L148.94 102.483V99.7223L140.943 87.1904C140.858 87.0568 140.83 86.895 140.864 86.7406C140.899 86.5862 140.994 86.4518 141.128 86.367C141.262 86.2822 141.424 86.2539 141.579 86.2884C141.734 86.3228 141.869 86.4172 141.954 86.5508L149.841 98.9119H192.787" fill="#F5C249"/>
<path d="M135.935 83.6474C135.986 83.5569 136.06 83.4812 136.15 83.4278C136.239 83.3743 136.341 83.3451 136.445 83.3428C136.345 83.3169 136.239 83.3169 136.139 83.3428C136.041 83.4206 135.97 83.5271 135.935 83.6474Z" fill="#F5C249"/>
<path d="M159.461 44.7794C155.473 43.6889 152.599 44.3623 152.599 44.3623C150.063 38.7349 142.03 33.5068 142.03 33.5068C136.38 36.4367 138.975 48.3847 138.975 48.3847L135.746 49.5904C131.71 44.7079 126.058 39.3666 124.429 39.2514C120.666 38.9852 120.536 55.7938 120.536 55.7938C111.38 61.2186 102.016 66.8877 94.7287 71.7721C94.9979 68.2821 96.6671 63.7731 100.735 58.2649C108.174 48.1841 109.817 34.8516 102.955 26.7889C93.3247 15.4667 84.5023 19.3202 79.2555 24.3199C73.9488 29.3732 73.1412 38.2761 81.4491 32.3607C89.8069 26.4016 93.9051 29.4884 97.8257 36.8419C101.746 44.1954 89.6374 55.5138 83.9878 64.6987C80.8189 69.8513 79.2575 74.9424 79.3253 79.1992H117.654C117.577 79.2866 117.501 79.372 117.433 79.4574L119.333 79.1992H131.536C136.408 83.8691 147.829 92.5714 150.38 87.5558C151.666 85.0311 152.228 82.2621 151.694 79.6342C152.825 81.7854 156.362 87.8637 159.437 86.1614C162.102 84.6875 164.224 80.5598 163.707 76.2296C165.689 74.4081 167.215 72.4694 168.17 70.4353C175.954 56.4831 163.001 45.7508 159.461 44.7794Z" fill="black" stroke="white" stroke-width="1.19654" stroke-linecap="round" stroke-linejoin="round"/>
<path d="M163.44 53.0944C168.198 45.8561 179.443 44.8232 179.443 44.8232Z" fill="black"/>
<path d="M163.44 53.0944C168.198 45.8561 179.443 44.8232 179.443 44.8232" stroke="white" stroke-width="1.19654" stroke-linecap="round" stroke-linejoin="round"/>
<path d="M165.43 58.9521C166.555 56.7115 174.859 52.0595 181.087 53.869Z" fill="#0D0D0D"/>
<path d="M165.43 58.9521C166.555 56.7115 174.859 52.0595 181.087 53.869" stroke="#FFF9F9" stroke-width="1.19654" stroke-linecap="round" stroke-linejoin="round"/>
<path d="M138.187 65.0686C134.783 63.9596 127.976 63.1985 122.767 68.1827Z" fill="black"/>
<path d="M138.187 65.0686C134.783 63.9596 127.976 63.1985 122.767 68.1827" stroke="#FBFBFB" stroke-width="1.19654" stroke-linecap="round" stroke-linejoin="round"/>
<path d="M137.896 62.0838C134.609 59.24 125.872 58.4629 119.818 63.0317Z" fill="black"/>
<path d="M137.896 62.0838C134.609 59.24 125.872 58.4629 119.818 63.0317" stroke="#FBFBFB" stroke-width="1.19654" stroke-linecap="round" stroke-linejoin="round"/>
<path d="M126.247 40.6875C126.247 40.6875 121.922 50.9392 126.68 54.3934Z" fill="black"/>
<path d="M126.247 40.6875C126.247 40.6875 121.922 50.9392 126.68 54.3934" stroke="white" stroke-width="1.19654" stroke-linecap="round" stroke-linejoin="round"/>
<path d="M142.941 34.9152C142.941 34.9152 140.692 42.662 142.768 47.9239Z" fill="black"/>
<path d="M142.941 34.9152C142.941 34.9152 140.692 42.662 142.768 47.9239" stroke="white" stroke-width="1.19654" stroke-linecap="round" stroke-linejoin="round"/>
<path d="M143.805 60.6155C144.617 60.3373 144.918 59.0765 144.478 57.7994C144.037 56.5223 143.021 55.7125 142.209 55.9907C141.396 56.2688 141.095 57.5296 141.536 58.8067C141.976 60.0838 142.992 60.8937 143.805 60.6155Z" fill="white"/>
<path d="M155.48 56.9109C156.293 56.6327 156.594 55.3719 156.153 54.0948C155.713 52.8177 154.697 52.0079 153.884 52.2861C153.072 52.5642 152.771 53.825 153.211 55.1021C153.652 56.3793 154.668 57.1891 155.48 56.9109Z" fill="white"/>
<path d="M154.432 59.3082L152.996 61.6652C152.891 61.8292 152.725 61.9457 152.535 61.9898C152.344 62.034 152.144 62.0024 151.977 61.9017L149.753 60.5801C149.635 60.5134 149.539 60.4127 149.478 60.2911C149.418 60.1695 149.396 60.0326 149.414 59.8981C149.432 59.7636 149.491 59.6378 149.582 59.5369C149.673 59.4359 149.793 59.3646 149.925 59.3321L153.584 58.2967C154.216 58.1159 154.755 58.7657 154.432 59.3082Z" fill="white"/>
<path d="M150.599 64.1418C152.89 67.0373 152.817 63.4303 152.454 61.5305C153.192 63.1819 155.144 65.5766 155.445 62.9216" fill="white"/>
<path d="M150.599 64.1418C152.89 67.0373 152.817 63.4303 152.454 61.5305C153.192 63.1819 155.144 65.5766 155.445 62.9216" stroke="white" stroke-width="1.19654" stroke-linecap="round" stroke-linejoin="round"/>
<path d="M147.741 88.9781C147.51 88.3464 143.892 81.1796 140.317 78.4801Z" fill="black"/>
<path d="M147.741 88.9781C147.51 88.3464 143.892 81.1796 140.317 78.4801" stroke="white" stroke-width="1.19654" stroke-linecap="round" stroke-linejoin="round"/>
<path d="M145.45 76.3547C145.621 76.4123 149.837 83.307 150.005 88.0147Z" fill="black"/>
<path d="M145.45 76.3547C145.621 76.4123 149.837 83.307 150.005 88.0147" stroke="white" stroke-width="1.19654" stroke-linecap="round" stroke-linejoin="round"/>
<path d="M117.425 79.4614C120.711 75.4112 135.772 67.571 144.148 71.363C152.523 75.155 153.229 81.9602 150.376 87.5598" fill="black"/>
<path d="M117.425 79.4614C120.711 75.4112 135.772 67.571 144.148 71.363C152.523 75.155 153.229 81.9602 150.376 87.5598" stroke="white" stroke-width="1.19654" stroke-linecap="round" stroke-linejoin="round"/>
<path d="M154.229 75.4886C154.229 75.4886 158.121 82.8541 158.207 86.4295Z" fill="black"/>
<path d="M154.229 75.4886C154.229 75.4886 158.121 82.8541 158.207 86.4295" stroke="white" stroke-width="1.19654" stroke-linecap="round" stroke-linejoin="round"/>
<path d="M159.073 73.8578C159.073 73.8578 161.926 82.429 160.241 85.7462Z" fill="black"/>
<path d="M159.073 73.8578C159.073 73.8578 161.926 82.429 160.241 85.7462" stroke="white" stroke-width="1.19654" stroke-linecap="round" stroke-linejoin="round"/>
<path d="M147.346 72.6223C148.397 70.9398 157.635 65.4416 161.727 71.1623C162.471 72.2012 163.282 74.2253 163.613 75.3218" fill="black"/>
<path d="M147.346 72.6223C148.397 70.9398 157.635 65.4416 161.727 71.1623C162.471 72.2012 163.282 74.2253 163.613 75.3218" stroke="white" stroke-width="1.19654" stroke-linecap="round" stroke-linejoin="round"/>
<path d="M1 162.499H238" stroke="#3F3F3F" stroke-width="1.19654" stroke-linecap="round" stroke-linejoin="round"/>
</svg>
