<svg width="23" height="23" viewBox="0 0 23 23" fill="none" xmlns="http://www.w3.org/2000/svg">
<path d="M11.0935 15.4567C12.8997 15.4567 14.364 13.9925 14.364 12.1863C14.364 10.38 12.8997 8.91577 11.0935 8.91577C9.28724 8.91577 7.823 10.38 7.823 12.1863C7.823 13.9925 9.28724 15.4567 11.0935 15.4567Z" stroke="#787A8D" stroke-width="1.664" stroke-miterlimit="10"/>
<path d="M20.1322 15.9248C20.1322 16.9172 19.7386 17.869 19.0376 18.5715C18.3367 19.274 17.3857 19.6697 16.3934 19.6719H5.79306C4.8007 19.6697 3.84973 19.274 3.14879 18.5715C2.44785 17.869 2.0542 16.9172 2.0542 15.9248V11.5532C2.05662 10.5619 2.44923 9.61137 3.1471 8.90728L8.44725 3.61535C8.79451 3.2675 9.20696 2.99155 9.66098 2.80326C10.115 2.61498 10.6017 2.51807 11.0932 2.51807C11.5847 2.51807 12.0714 2.61498 12.5254 2.80326C12.9795 2.99155 13.3919 3.2675 13.7392 3.61535L19.0393 8.90728C19.7372 9.61137 20.1298 10.5619 20.1322 11.5532V15.9248Z" stroke="#787A8D" stroke-width="1.664" stroke-miterlimit="10"/>
</svg>
