<svg width="27" height="28" viewBox="0 0 27 28" fill="none" xmlns="http://www.w3.org/2000/svg">
<path d="M11.8091 11.042V21.0342C11.8091 22.019 12.6074 22.8174 13.5922 22.8174H13.7648C14.7496 22.8174 15.5479 22.019 15.5479 21.0342V11.042C15.5479 10.0572 14.7496 9.25886 13.7648 9.25886H13.5922C12.6074 9.25886 11.8091 10.0572 11.8091 11.042Z" stroke="#787A8D" stroke-width="1.664" stroke-linecap="round" stroke-linejoin="round"/>
<path d="M18.9749 6.52251V21.0342C18.9749 22.019 19.7732 22.8174 20.758 22.8174H20.9306C21.9154 22.8174 22.7137 22.019 22.7137 21.0342V6.52251C22.7137 5.5377 21.9154 4.73936 20.9306 4.73936H20.758C19.7732 4.73936 18.9749 5.5377 18.9749 6.52251Z" stroke="#787A8D" stroke-width="1.664" stroke-linecap="round" stroke-linejoin="round"/>
<path d="M4.64355 16.4983V21.0342C4.64355 22.019 5.4419 22.8174 6.4267 22.8174H6.59927C7.58408 22.8174 8.38242 22.019 8.38242 21.0342V16.4983C8.38242 15.5135 7.58408 14.7151 6.59927 14.7151H6.4267C5.4419 14.7151 4.64355 15.5135 4.64355 16.4983Z" stroke="#787A8D" stroke-width="1.664" stroke-linecap="round" stroke-linejoin="round"/>
</svg>
