<svg width="27" height="28" viewBox="0 0 27 28" fill="none" xmlns="http://www.w3.org/2000/svg">
<path d="M21.1153 14.4108C21.1137 16.0731 20.6193 17.6976 19.6946 19.0789C18.7699 20.4602 17.4565 21.5364 15.9203 22.1714C14.3841 22.8064 12.6941 22.9717 11.064 22.6464C9.43388 22.3211 7.9368 21.5198 6.76198 20.3439C5.58716 19.1679 4.78736 17.67 4.46366 16.0396C4.13997 14.4092 4.30692 12.7193 4.94341 11.1838C5.57991 9.64821 6.65736 8.33581 8.03959 7.41248C9.42182 6.48915 11.0468 5.99634 12.709 5.99634V14.4108H21.1153Z" stroke="#787A8D" stroke-width="1.664" stroke-linecap="round" stroke-linejoin="round"/>
<path d="M22.3562 10.7954H16.2261V4.73926C17.7051 5.08913 19.0594 5.83923 20.1407 6.90741C21.2219 7.97559 22.3789 9.32068 22.7467 10.7954H22.3562Z" stroke="#787A8D" stroke-width="1.664" stroke-linecap="round" stroke-linejoin="round"/>
</svg>
