<svg width="28" height="28" viewBox="0 0 28 28" fill="none" xmlns="http://www.w3.org/2000/svg">
<path d="M15.8063 5.93091L16.3568 6.89233C16.5646 7.25554 16.8649 7.55718 17.2273 7.76649C17.5896 7.9758 18.0009 8.0853 18.4194 8.08384H19.504C19.9211 8.08215 20.3312 8.19069 20.6928 8.39848C21.0543 8.60627 21.3546 8.90591 21.5631 9.26708C21.7717 9.62825 21.881 10.0381 21.8802 10.4551C21.8794 10.8722 21.7683 11.2816 21.5584 11.6419L20.9996 12.5951C20.7896 12.9571 20.6791 13.3682 20.6791 13.7866C20.6791 14.2051 20.7896 14.6161 20.9996 14.9781L21.5584 15.9313C21.7663 16.2915 21.8756 16.7 21.8754 17.1158C21.8752 17.5317 21.7654 17.9401 21.5572 18.3C21.3489 18.6599 21.0495 18.9586 20.689 19.166C20.3286 19.3733 19.9199 19.4821 19.504 19.4812H18.4194C18.0009 19.4797 17.5896 19.5892 17.2273 19.7986C16.8649 20.0079 16.5646 20.3095 16.3568 20.6727L15.8063 21.6341C15.5992 21.9962 15.3002 22.297 14.9394 22.5063C14.5787 22.7156 14.169 22.8258 13.7519 22.8258C13.3349 22.8258 12.9252 22.7156 12.5645 22.5063C12.2037 22.297 11.9047 21.9962 11.6976 21.6341L11.1471 20.6727C10.9393 20.3095 10.639 20.0079 10.2766 19.7986C9.9143 19.5892 9.50296 19.4797 9.08453 19.4812H7.99985C7.58281 19.4829 7.17273 19.3744 6.81114 19.1666C6.44955 18.9588 6.14929 18.6591 5.94076 18.298C5.73224 17.9368 5.62285 17.5269 5.62369 17.1099C5.62453 16.6929 5.73555 16.2835 5.94552 15.9231L6.5043 14.9699C6.71426 14.6079 6.82484 14.1969 6.82484 13.7784C6.82484 13.3599 6.71426 12.9489 6.5043 12.5869L5.92909 11.6337C5.71838 11.2722 5.60731 10.8612 5.60718 10.4428C5.60705 10.0243 5.71787 9.61332 5.92836 9.25166C6.13884 8.89 6.44145 8.59061 6.80535 8.38402C7.16925 8.17742 7.58142 8.07101 7.99985 8.07562H9.08453C9.50215 8.07791 9.91295 7.96965 10.2752 7.76183C10.6375 7.554 10.9383 7.25401 11.1471 6.89233L11.6976 5.93091C11.9047 5.56888 12.2037 5.268 12.5645 5.05873C12.9252 4.84947 13.3349 4.73926 13.7519 4.73926C14.169 4.73926 14.5787 4.84947 14.9394 5.05873C15.3002 5.268 15.5992 5.56888 15.8063 5.93091Z" stroke="#787A8D" stroke-width="1.664" stroke-linecap="round" stroke-linejoin="round"/>
<path d="M13.752 16.8928C15.4721 16.8928 16.8664 15.4984 16.8664 13.7784C16.8664 12.0584 15.4721 10.6641 13.752 10.6641C12.032 10.6641 10.6377 12.0584 10.6377 13.7784C10.6377 15.4984 12.032 16.8928 13.752 16.8928Z" stroke="#787A8D" stroke-width="2.21867" stroke-linecap="round" stroke-linejoin="round"/>
</svg>
