<svg width="20" height="20" viewBox="0 0 20 20" fill="none" xmlns="http://www.w3.org/2000/svg">
<g clip-path="url(#clip0_1005_4071)">
<path d="M18.3333 7.08332C18.3333 10.075 15.9083 12.5 12.9167 12.5C12.775 12.5 12.625 12.4917 12.4833 12.4833C12.275 9.84166 10.1583 7.72498 7.51666 7.51665C7.50832 7.37498 7.5 7.22499 7.5 7.08332C7.5 4.09166 9.925 1.66666 12.9167 1.66666C15.9083 1.66666 18.3333 4.09166 18.3333 7.08332Z" stroke="white" stroke-width="1.4" stroke-linecap="round" stroke-linejoin="round"/>
<path d="M12.5 12.9167C12.5 15.9083 10.075 18.3333 7.08329 18.3333C4.09163 18.3333 1.66663 15.9083 1.66663 12.9167C1.66663 9.925 4.09163 7.5 7.08329 7.5C7.22496 7.5 7.37495 7.50832 7.51662 7.51666C10.1583 7.72499 12.275 9.84167 12.4833 12.4833C12.4916 12.625 12.5 12.775 12.5 12.9167Z" stroke="white" stroke-width="1.4" stroke-linecap="round" stroke-linejoin="round"/>
<path d="M6.35 12.1833L7.08333 10.8333L7.81667 12.1833L9.16667 12.9167L7.81667 13.65L7.08333 15L6.35 13.65L5 12.9167L6.35 12.1833Z" stroke="white" stroke-linecap="round" stroke-linejoin="round"/>
</g>
<defs>
<clipPath id="clip0_1005_4071">
<rect width="20" height="20" fill="white"/>
</clipPath>
</defs>
</svg>
