<svg width="27" height="27" viewBox="0 0 27 27" fill="none" xmlns="http://www.w3.org/2000/svg">
<path d="M18.1706 20.4211V20.4919C18.1706 21.5641 17.7492 22.5925 16.999 23.3507C16.2489 24.1088 15.2314 24.5348 14.1705 24.5348C13.1096 24.5348 12.0922 24.1088 11.342 23.3507C10.5918 22.5925 10.1704 21.5641 10.1704 20.4919V20.4211" stroke="white" stroke-width="1.11533" stroke-linecap="round" stroke-linejoin="round"/>
<path d="M23.6507 14.4171V18.9047C23.6457 19.3017 23.4887 19.6814 23.2128 19.964C22.9369 20.2467 22.5634 20.4104 22.1707 20.4208H6.17023C5.7775 20.4104 5.40401 20.2467 5.12808 19.964C4.85215 19.6814 4.69522 19.3017 4.69019 18.9047V14.2554C4.69001 12.9834 4.94042 11.7241 5.42682 10.5509C5.91322 9.37773 6.62588 8.31419 7.52322 7.42231C8.42056 6.53042 9.48462 5.82805 10.6534 5.35614C11.8221 4.88424 13.0721 4.65226 14.3304 4.67373C16.8355 4.745 19.2135 5.80451 20.9554 7.62549C22.6973 9.44648 23.6648 11.8843 23.6507 14.4171V14.4171Z" stroke="white" stroke-width="1.673" stroke-miterlimit="10"/>
<path d="M18.7695 12.9618C18.7695 11.844 18.3301 10.7719 17.5481 9.98153C16.766 9.19112 15.7053 8.74707 14.5994 8.74707" stroke="white" stroke-width="1.673" stroke-linecap="round" stroke-linejoin="round"/>
<path d="M14.3 4.67398V2.22803" stroke="white" stroke-width="1.673" stroke-linecap="round" stroke-linejoin="round"/>
</svg>
