<svg width="20" height="20" viewBox="0 0 20 20" fill="none" xmlns="http://www.w3.org/2000/svg">
<g clip-path="url(#clip0_1005_4067)">
<path d="M5.83337 10H11.6667M11.6667 10L9.16671 12.5M11.6667 10L9.16671 7.5" stroke="white" stroke-width="1.4" stroke-linecap="round" stroke-linejoin="round"/>
<path d="M14.1666 13.3333V6.66666" stroke="white" stroke-width="1.4" stroke-linecap="round"/>
<path d="M1.66663 9.99999C1.66663 6.07161 1.66663 4.10743 2.88702 2.88705C4.1074 1.66666 6.07158 1.66666 9.99996 1.66666C13.9283 1.66666 15.8925 1.66666 17.1129 2.88705C18.3333 4.10743 18.3333 6.07161 18.3333 9.99999C18.3333 13.9283 18.3333 15.8926 17.1129 17.1129C15.8925 18.3333 13.9283 18.3333 9.99996 18.3333C6.07158 18.3333 4.1074 18.3333 2.88702 17.1129C1.66663 15.8926 1.66663 13.9283 1.66663 9.99999Z" stroke="white" stroke-width="1.4"/>
</g>
<defs>
<clipPath id="clip0_1005_4067">
<rect width="20" height="20" fill="white"/>
</clipPath>
</defs>
</svg>
