<svg width="19" height="21" viewBox="0 0 19 21" fill="none" xmlns="http://www.w3.org/2000/svg">
<path d="M7.80088 12.3949L17.7245 1.30786M8.08296 12.8934L10.3331 17.9234C10.877 19.1388 11.1488 19.7466 11.4913 19.9096C11.7886 20.051 12.1284 20.0254 12.406 19.8407C12.7259 19.6278 12.9223 18.9847 13.3153 17.6986L17.5669 3.78262C17.9093 2.66203 18.0804 2.10173 17.9632 1.73108C17.8613 1.40864 17.6344 1.155 17.3459 1.04108C17.0142 0.910129 16.5129 1.10145 15.5103 1.48409L3.05907 6.23592C1.90837 6.67506 1.33302 6.89464 1.14256 7.25213C0.977266 7.56236 0.954363 7.94214 1.08091 8.2743C1.22673 8.65713 1.77051 8.96108 2.85808 9.56876L7.35849 12.0838C7.53773 12.1839 7.62734 12.2339 7.7049 12.3008C7.77385 12.3602 7.83561 12.4293 7.88867 12.5062C7.94861 12.593 7.99336 12.6932 8.08296 12.8934Z" stroke="white" stroke-width="1.4" stroke-linecap="round" stroke-linejoin="round"/>
</svg>
